<svg xmlns="http://www.w3.org/2000/svg" xmlns:xlink="http://www.w3.org/1999/xlink" width="92.379" height="92.01" viewBox="0 0 92.379 92.01">
  <defs>
    <linearGradient id="linear-gradient" x1="0.5" y1="0.532" x2="0.5" y2="1.21" gradientUnits="objectBoundingBox">
      <stop offset="0" stop-color="#f3d273"/>
      <stop offset="1" stop-color="#c10000"/>
    </linearGradient>
    <linearGradient id="linear-gradient-2" x1="0.5" y1="0.312" x2="0.5" y2="0.933" gradientUnits="objectBoundingBox">
      <stop offset="0" stop-color="#b5b5b5"/>
      <stop offset="1" stop-color="#628491"/>
    </linearGradient>
  </defs>
  <g id="fire-policy" transform="translate(1.526 1.508)">
    <path id="Path_957" data-name="Path 957" d="M-20605.611-16419.9a22.088,22.088,0,0,1-17.02-15.211c-4.172-13.422,6.867-20.443,6.867-20.443a21,21,0,0,1,5.023-18.453c7.709-8.674,0-19.646,0-19.646s10.154,3.236,10.213,13.006c.215-.078-2.5-17.715,20.986-20.664.32.025-8.055,3.375-3.012,15.8.342.168,10.291-2.307,14.844-13.955.369-.346-2.7,17.045,6.826,29.344h0c-.088.123,7.719-15.662,1.512-24.678.082.486,13.918,11.715,10.525,27.322.664.5.561-17.385,14.289-18.033-.08.41-10.045,2.285-1.533,27.344s-15.531,38.264-15.531,38.264Z" transform="translate(20623.572 16501.311)" stroke="#444" stroke-width="3" fill="url(#linear-gradient)"/>
    <path id="Path_955" data-name="Path 955" d="M-20575.434-16484.828l-37.342,18.258v43.918h74.623v-43.918Z" transform="translate(20622.482 16511.654)" stroke="#444" stroke-width="3" fill="url(#linear-gradient-2)"/>
    <g id="Rectangle_820" data-name="Rectangle 820" transform="translate(18.381 48.98)" fill="#6ec9ce" stroke="#444" stroke-width="2">
      <rect width="58.164" height="39.956" stroke="none"/>
      <rect x="1" y="1" width="56.164" height="37.956" fill="none"/>
    </g>
    <g id="Group_5255" data-name="Group 5255" transform="translate(36.283 42.786)">
      <g id="Rectangle_821" data-name="Rectangle 821" transform="translate(3.012 19.212)" fill="#628491" stroke="#444" stroke-width="2">
        <path d="M2,0H15.343a2,2,0,0,1,2,2V25.938a0,0,0,0,1,0,0H0a0,0,0,0,1,0,0V2A2,2,0,0,1,2,0Z" stroke="none"/>
        <rect x="1" y="1" width="15.343" height="23.938" rx="1" fill="none"/>
      </g>
      <line id="Line_259" data-name="Line 259" x2="16.62" transform="translate(3.321 31.837)" fill="none" stroke="#444" stroke-width="2"/>
      <line id="Line_260" data-name="Line 260" x1="0.137" y2="25.507" transform="translate(11.691 19.639)" fill="none" stroke="#444" stroke-width="2"/>
      <line id="Line_263" data-name="Line 263" y2="2.89" transform="translate(2 30.477)" fill="none" stroke="#444" stroke-width="2"/>
      <line id="Line_264" data-name="Line 264" y2="2.89" transform="translate(21.383 30.477)" fill="none" stroke="#444" stroke-width="2"/>
    </g>
    <g id="Group_5256" data-name="Group 5256" transform="translate(38.383 37.129)">
      <line id="Line_261" data-name="Line 261" y2="2.168" transform="translate(0 1.66)" fill="none" stroke="#444" stroke-width="2"/>
      <line id="Line_262" data-name="Line 262" y2="2.168" transform="translate(17.773 1.66)" fill="none" stroke="#444" stroke-width="2"/>
      <path id="Path_956" data-name="Path 956" d="M-20610.2-16484.83l-2.576,1.609v3.879h5.154v-3.879Z" transform="translate(20619.008 16484.83)" fill="none" stroke="#444" stroke-width="2"/>
    </g>
  </g>
</svg>
