<svg xmlns="http://www.w3.org/2000/svg" xmlns:xlink="http://www.w3.org/1999/xlink" width="339.319" height="264.017" viewBox="0 0 339.319 264.017">
  <defs>
    <linearGradient id="linear-gradient" x1="0.5" x2="0.5" y2="1" gradientUnits="objectBoundingBox">
      <stop offset="0" stop-color="#e8898c"/>
      <stop offset="1" stop-color="#c76368"/>
    </linearGradient>
    <linearGradient id="linear-gradient-2" x1="0.5" x2="0.5" y2="1" gradientUnits="objectBoundingBox">
      <stop offset="0" stop-color="#e98a8d"/>
      <stop offset="1" stop-color="#c66267"/>
    </linearGradient>
    <clipPath id="clip-path">
      <rect id="Rectangle_1450" data-name="Rectangle 1450" width="6.887" height="38.761" fill="none"/>
    </clipPath>
  </defs>
  <g id="Group_4198" data-name="Group 4198" transform="translate(-943.845 -177.455)">
    <ellipse id="Ellipse_778" data-name="Ellipse 778" cx="163.85" cy="9.927" rx="163.85" ry="9.927" transform="translate(944.845 421.619)" fill="#aaa" opacity="0.35"/>
    <g id="Group_4197" data-name="Group 4197" transform="translate(3)">
      <path id="Path_2381" data-name="Path 2381" d="M985.479,7544.411c-2.69,1.051-15.471,4.035,11.569,31.882,10.334,12.616-15.009,5.662-5.2,19.572,12.512,16.2,24.563-1.236,15.587,21.821-3.827,12.271,12.662,21.165,29.526,17.144s23.893-45.592-6.138-42.234c-9.885-.873,5.721-22.763-10.907-27.626-5-.8-6.611-.092-12.481,2.69S997.193,7543.012,985.479,7544.411Z" transform="translate(-38.266 -7204.808)" fill="#6ec9ce" stroke="#00848b" stroke-width="2"/>
      <path id="Path_2382" data-name="Path 2382" d="M403.237,6967.232,366.557,6909.2" transform="translate(598 -6538)" fill="none" stroke="#00848b" stroke-width="1"/>
    </g>
    <g id="Group_4166" data-name="Group 4166" transform="translate(1001.237 177.455)">
      <g id="Rectangle_211" data-name="Rectangle 211" transform="translate(0 32.643)" fill="#f2d073" stroke="#444" stroke-width="3">
        <rect width="163.597" height="221.447" rx="4" stroke="none"/>
        <rect x="1.5" y="1.5" width="160.597" height="218.447" rx="2.5" fill="none"/>
      </g>
      <g id="Rectangle_43" data-name="Rectangle 43" transform="translate(8.594 40.449)" fill="#fff" stroke="#444" stroke-width="2">
        <rect width="146.41" height="194.274" rx="4" stroke="none"/>
        <rect x="1" y="1" width="144.41" height="192.274" rx="3" fill="none"/>
      </g>
      <g id="Union_67" data-name="Union 67" transform="translate(25.466 0)" fill="#d8ad31">
        <path d="M 110.3373107910156 54.02009582519531 L 5.000403881072998 54.02009582519531 C 3.070280790328979 54.02009582519531 1.500003814697266 52.45023345947266 1.500003814697266 50.52060317993164 L 1.500003814697266 22.70429611206055 C 1.500003814697266 20.77466583251953 3.070280790328979 19.20480346679688 5.000403881072998 19.20480346679688 L 39.96449661254883 19.20480346679688 L 41.46449661254883 19.20480346679688 L 41.46449661254883 17.70480346679688 C 41.46449661254883 13.37617301940918 43.15000534057617 9.306741714477539 46.21052551269531 6.246111392974854 C 49.27098846435547 3.185542106628418 53.34014129638672 1.500003695487976 57.66840362548828 1.500003695487976 C 61.99706649780273 1.500003695487976 66.06649780273438 3.185542106628418 69.12708282470703 6.246126651763916 C 72.18766784667969 9.306711196899414 73.87320709228516 13.37614250183105 73.87320709228516 17.70480346679688 L 73.87320709228516 19.20480346679688 L 75.37320709228516 19.20480346679688 L 110.3373107910156 19.20480346679688 C 112.2674331665039 19.20480346679688 113.8376998901367 20.77466583251953 113.8376998901367 22.70429611206055 L 113.8376998901367 50.52060317993164 C 113.8376998901367 52.45023345947266 112.2674331665039 54.02009582519531 110.3373107910156 54.02009582519531 Z" stroke="none"/>
        <path d="M 110.3373031616211 52.52010345458984 C 111.4403228759766 52.52010345458984 112.3377075195312 51.62312316894531 112.3377075195312 50.52059555053711 L 112.3377075195312 22.70430374145508 C 112.3377075195312 21.60177803039551 111.4403228759766 20.70479583740234 110.3373031616211 20.70479583740234 L 72.37319183349609 20.70479583740234 L 72.37319183349609 17.70479583740234 C 72.37319183349609 13.77681350708008 70.84368896484375 10.08405017852783 68.06641387939453 7.306777000427246 C 65.28913879394531 4.529504299163818 61.59639358520508 2.999995231628418 57.66839599609375 2.999995231628418 C 53.74081420898438 2.999995231628418 50.04835891723633 4.529486179351807 47.27121353149414 7.306740760803223 C 44.49399566650391 10.08406829833984 42.96450424194336 13.77683162689209 42.96450424194336 17.70479583740234 L 42.96450424194336 20.70479583740234 L 5.00039529800415 20.70479583740234 C 3.897377252578735 20.70479583740234 2.999995470046997 21.60177803039551 2.999995470046997 22.70430374145508 L 2.999995470046997 50.52059555053711 C 2.999995470046997 51.62312316894531 3.897377252578735 52.52010345458984 5.00039529800415 52.52010345458984 L 110.3373031616211 52.52010345458984 M 110.3373031616211 55.52010345458984 L 5.00039529800415 55.52010345458984 C 2.239195346832275 55.52010345458984 -4.600386091624387e-06 53.28179550170898 -4.600386091624387e-06 50.52059555053711 L -4.600386091624387e-06 22.70430374145508 C -4.600386091624387e-06 19.9431037902832 2.239195346832275 17.70479583740234 5.00039529800415 17.70479583740234 L 39.96450424194336 17.70479583740234 C 39.96450424194336 7.926304340362549 47.89079666137695 -4.725508460978745e-06 57.66839599609375 -4.725508460978745e-06 C 67.44690704345703 -4.725508460978745e-06 75.37319183349609 7.926304340362549 75.37319183349609 17.70479583740234 L 110.3373031616211 17.70479583740234 C 113.098503112793 17.70479583740234 115.3377075195312 19.9431037902832 115.3377075195312 22.70430374145508 L 115.3377075195312 50.52059555053711 C 115.3377075195312 53.28179550170898 113.098503112793 55.52010345458984 110.3373031616211 55.52010345458984 Z" stroke="none" fill="#444"/>
      </g>
      <g id="Ellipse_551" data-name="Ellipse 551" transform="translate(73.881 8.68)" fill="#fff" stroke="#444" stroke-width="2">
        <ellipse cx="9.253" cy="8.804" rx="9.253" ry="8.804" stroke="none"/>
        <ellipse cx="9.253" cy="8.804" rx="8.253" ry="7.804" fill="none"/>
      </g>
      <g id="Group_3966" data-name="Group 3966" transform="translate(24.601 103.981)">
        <line id="Line_89" data-name="Line 89" x2="76.389" transform="translate(37.415 3.64)" fill="none" stroke="#444" stroke-linecap="round" stroke-width="2"/>
        <line id="Line_356" data-name="Line 356" x2="76.389" transform="translate(37.415 11.16)" fill="none" stroke="#444" stroke-linecap="round" stroke-width="2"/>
        <line id="Line_90" data-name="Line 90" x2="49.444" transform="translate(37.415 18.639)" fill="none" stroke="#444" stroke-linecap="round" stroke-width="2"/>
        <g id="Rectangle_1387" data-name="Rectangle 1387" transform="translate(0 2.551)" fill="#fff" stroke="#444" stroke-width="2">
          <rect width="17.985" height="17.985" rx="3" stroke="none"/>
          <rect x="1" y="1" width="15.985" height="15.985" rx="2" fill="none"/>
        </g>
        <path id="Path_1852" data-name="Path 1852" d="M0,9.819l4.491,3.969L20.573,0" transform="translate(5.422 0)" fill="none" stroke="#d64e4e" stroke-linecap="round" stroke-width="3"/>
      </g>
      <g id="Group_3967" data-name="Group 3967" transform="translate(24.707 147.254)">
        <line id="Line_89-2" data-name="Line 89" x2="76.389" transform="translate(37.31 3.64)" fill="none" stroke="#444" stroke-linecap="round" stroke-width="2"/>
        <line id="Line_356-2" data-name="Line 356" x2="76.389" transform="translate(37.31 11.16)" fill="none" stroke="#444" stroke-linecap="round" stroke-width="2"/>
        <line id="Line_90-2" data-name="Line 90" x2="49.444" transform="translate(37.31 18.639)" fill="none" stroke="#444" stroke-linecap="round" stroke-width="2"/>
        <g id="Rectangle_1387-2" data-name="Rectangle 1387" transform="translate(0 2.627)" fill="#fff" stroke="#444" stroke-width="2">
          <rect width="18.262" height="18.262" rx="3" stroke="none"/>
          <rect x="1" y="1" width="16.262" height="16.262" rx="2" fill="none"/>
        </g>
        <path id="Path_1852-2" data-name="Path 1852" d="M0,9.819l4.491,3.969L20.573,0" transform="translate(5.316 0)" fill="none" stroke="#d64e4e" stroke-linecap="round" stroke-width="3"/>
      </g>
      <g id="Group_3968" data-name="Group 3968" transform="translate(24.707 190.528)">
        <line id="Line_89-3" data-name="Line 89" x2="76.389" transform="translate(37.31 3.64)" fill="none" stroke="#444" stroke-linecap="round" stroke-width="2"/>
        <line id="Line_356-3" data-name="Line 356" x2="76.389" transform="translate(37.31 11.16)" fill="none" stroke="#444" stroke-linecap="round" stroke-width="2"/>
        <line id="Line_90-3" data-name="Line 90" x2="49.444" transform="translate(37.31 18.639)" fill="none" stroke="#444" stroke-linecap="round" stroke-width="2"/>
        <g id="Rectangle_1387-3" data-name="Rectangle 1387" transform="translate(0 2.627)" fill="#fff" stroke="#444" stroke-width="2">
          <rect width="18.262" height="18.262" rx="3" stroke="none"/>
          <rect x="1" y="1" width="16.262" height="16.262" rx="2" fill="none"/>
        </g>
        <path id="Path_1852-3" data-name="Path 1852" d="M0,9.819l4.491,3.969L20.573,0" transform="translate(5.316 0)" fill="none" stroke="#d64e4e" stroke-linecap="round" stroke-width="3"/>
      </g>
      <text id="INSURANCE" transform="translate(39.418 84.662)" fill="#00848b" font-size="13" font-family="HelveticaNeue-Bold, Helvetica Neue" font-weight="700" letter-spacing="0.02em"><tspan x="0" y="0">INSURANCE</tspan></text>
    </g>
    <g id="Group_4195" data-name="Group 4195" transform="translate(1124.62 258.316)">
      <path id="Path_2371" data-name="Path 2371" d="M14.5,25.235,146.133,94.842l3.711-7.016.555-1.037L18.751,17.186Z" transform="translate(-0.922 0.089)" fill="#00848b"/>
      <path id="Path_2372" data-name="Path 2372" d="M27.843,0,23.591,8.048l131.646,69.6,1.536-2.9,2.718-5.135v0Z" transform="translate(-1.5 1.182)" fill="#00848b"/>
      <rect id="Rectangle_1451" data-name="Rectangle 1451" width="9.103" height="148.913" transform="matrix(0.468, -0.884, 0.884, 0.468, 17.854, 17.231)" fill="#407bff"/>
      <rect id="Rectangle_1452" data-name="Rectangle 1452" width="9.103" height="148.914" transform="matrix(0.468, -0.884, 0.884, 0.468, 17.854, 17.229)" fill="#6ec9ce"/>
      <path id="Path_2373" data-name="Path 2373" d="M8.179,1.066,4.349,8.31l9.5,15.836L26.619,0Z" transform="translate(-0.277 1.182)" fill="#407bff"/>
      <path id="Path_2375" data-name="Path 2375" d="M0,1.594,4.072,8.382,7.9,1.138Z" transform="translate(0 1.11)" fill="#00848b" stroke="#444" stroke-width="2"/>
      <path id="Path_2374" data-name="Path 2374" d="M8.179,1.066,4.349,8.309l9.5,15.838L26.619,0Z" transform="translate(-0.277 1.182)" fill="#f4f4f4" stroke="#444" stroke-width="2"/>
      <g id="Rectangle_1453" data-name="Rectangle 1453" transform="matrix(0.883, 0.469, -0.469, 0.883, 27.083, 0)" fill="none" stroke="#444" stroke-width="2">
        <rect width="148.888" height="29.029" stroke="none"/>
        <rect x="1" y="1" width="146.888" height="27.029" fill="none"/>
      </g>
    </g>
    <g id="Group_4182" data-name="Group 4182" transform="translate(1153.05 228.758)">
      <path id="Path_2347" data-name="Path 2347" d="M68.893,287.54H63.449l-.542-12.607h5.443Z" transform="translate(-15.939 -90.312)" fill="#f4d274" stroke="#444" stroke-width="2"/>
      <path id="Path_2348" data-name="Path 2348" d="M111.849,287.687l-5.168-.147-2.736-12.607h5.443Z" transform="translate(-25.773 -88.439)" fill="#f4d274" stroke="#444" stroke-width="2"/>
      <g id="Group_4180" data-name="Group 4180" transform="translate(0 0)">
        <path id="Path_2349" data-name="Path 2349" d="M104.171,291.052h6.116a.475.475,0,0,1,.464.372l1.075,4.839a.8.8,0,0,1-.8.968c-2.135-.037-3.173-.162-5.863-.162-1.655,0-5.064.172-7.349.172-2.235,0-2.584-2.26-1.648-2.464,4.194-.918,5.774-2.183,7.118-3.39a1.323,1.323,0,0,1,.883-.334" transform="translate(-23.651 -94.454)" fill="#444"/>
        <path id="Path_2350" data-name="Path 2350" d="M59.138,291.052h5.945a.475.475,0,0,1,.464.372l1.075,4.839a.792.792,0,0,1-.783.968c-2.144-.036-5.244-.162-7.939-.162-3.152,0-5.874.172-9.57.172-2.235,0-2.855-2.26-1.92-2.464,4.259-.932,7.736-1.031,11.417-3.3a2.52,2.52,0,0,1,1.311-.424" transform="translate(-11.592 -94.454)" fill="#444"/>
        <path id="Union_118" data-name="Union 118" d="M2.477,26.03c2.517-.6,3.533-2.627,3.8-4.832a7.52,7.52,0,0,1-6.016-6.09C-.617,10.2.58,2.255,5.974.416A7.369,7.369,0,0,1,15.692,8.34c-.594,4.958-.726,8.044-3.014,10.54-.1,2.753.372,5.429,2.175,7.15,0,0-1.6,4.04-9,4.04C-.909,30.07,2.477,26.03,2.477,26.03Z" transform="translate(44.724 3.818)" fill="#f4d274" stroke="#444" stroke-width="2"/>
        <path id="Path_2352" data-name="Path 2352" d="M60.7,39.737c.155-.99,1.889-2.136,3.87-2.569s9.567-1.393,11.889-.434-.4,3.8-.4,3.8Z" transform="translate(-15.598 -9.333)" fill="#407bff"/>
        <path id="Path_2353" data-name="Path 2353" d="M60.7,40.917c.155-1.333,1.889-2.875,3.87-3.457s9.567-1.875,11.889-.584-.4,5.115-.4,5.115Z" transform="translate(-15.598 -10.789)" fill="#c76368" stroke="#444" stroke-width="2"/>
        <path id="Union_117" data-name="Union 117" d="M2.725,44.866,0,39.136l5.178.4c2.043-4.055,3.545-12.048,4.622-15.7C10.59,21.15,1.168,4.4,1.168,4.4L7.728,0s9.644,15.056,10.094,22.94c.2,3.458-5.07,15.854-10.257,19.814-1.22,2-4.046,2.115-4.7,2.115C2.774,44.868,2.725,44.866,2.725,44.866Z" transform="translate(63.157 34.751)" fill="#f4d274" stroke="#444" stroke-width="2"/>
        <path id="Path_2356" data-name="Path 2356" d="M79.332,102.049l2.722,5.069,4.212-1.948-2.725-5.73Z" transform="translate(-20.385 -25.552)" fill="#b55b52"/>
        <path id="Path_2357" data-name="Path 2357" d="M90.655,41.792c5.151.749,11.05,18.6,11.05,18.6L90.887,66.5a132.607,132.607,0,0,1-7.114-14.792c-2.462-6.6,1.358-10.718,6.882-9.915" transform="translate(-21.33 -10.713)" stroke="#444" stroke-width="2" fill="url(#linear-gradient)"/>
        <path id="Path_2358" data-name="Path 2358" d="M51.232,41.619s-6.425,16.44-.322,47.055H80.027c.2-4.47-2.607-26.275,1.7-47.336a75.928,75.928,0,0,0-9.748-1.23,107.063,107.063,0,0,0-12.377,0,54.657,54.657,0,0,0-8.374,1.511" transform="translate(-12.405 -10.259)" stroke="#444" stroke-width="2" fill="url(#linear-gradient-2)"/>
        <path id="Union_116" data-name="Union 116" d="M6.275,30.491l-3.689-.961L0,25.951,3.056,24.62l6.214-1.344.033-.043c4.5-.618,11.932-3.914,15.553-5.1C27.515,17.261,35.968,0,35.968,0l7.344,2.909S36.381,19.39,30.144,24.233c-2.389,1.855-12.762,4.143-19.483,3.343a16.88,16.88,0,0,1-4.318,3.04Z" transform="translate(0 36.093)" fill="#f4d274" stroke="#444" stroke-width="2"/>
        <path id="Path_2360" data-name="Path 2360" d="M54.608,45.875c1.835,4.871-7.46,19.214-7.46,19.214L36.26,59.176a66.435,66.435,0,0,1,6.291-12.745c3.853-5.74,10.043-5.9,12.057-.557" transform="translate(-9.317 -10.79)" stroke="#444" stroke-width="2" fill="url(#linear-gradient)"/>
        <path id="Path_2364" data-name="Path 2364" d="M63.444,13.21c-1.879.372-4.88-3.8-2.433-7.348-1.24-.619-5.286,1.817-6.813-.454S56.9,1.921,56.1,0c2.87.588-1.858,4.168.867,3.818S62.835-1.572,65.91.5c5.387,3.622,12.724-2.415,9.73,5.14,3.674-.743,6.184,3.6,2.685,6.6-6.973,5.987-2.685,6.771-7.1,7.08-2.246.158-7.392-2.5-7.781-6.109" transform="translate(-13.84 0)" fill="#444"/>
        <path id="Path_2365" data-name="Path 2365" d="M68.9,18.589a4.537,4.537,0,0,1-2.593,2.3c-1.508.507-2.345-.821-2-2.287.314-1.32,1.479-3.174,3.025-3.046A2.037,2.037,0,0,1,68.9,18.589" transform="translate(-16.504 -3.994)" fill="#f4d274"/>
        <path id="Path_2367" data-name="Path 2367" d="M65.72,105.532s6.178,35.732,9.57,49.119C79,169.31,93,218.141,93,218.141h9.971s-9.227-47.647-11.346-62.161c-2.3-15.752-7.113-50.447-7.113-50.447Z" transform="translate(-16.887 -27.118)" fill="#00848b" stroke="#444" stroke-width="2"/>
        <g id="Group_4175" data-name="Group 4175" transform="translate(52.225 92.169)" opacity="0.2">
          <g id="Group_4174" data-name="Group 4174" transform="translate(0 0)">
            <g id="Group_4173" data-name="Group 4173" clip-path="url(#clip-path)">
              <path id="Path_2368" data-name="Path 2368" d="M74.232,124.834c-.458-.652-.88-.875-1.266-.764a.786.786,0,0,0-.08.029.975.975,0,0,0-.244.145,1.645,1.645,0,0,0-.213.217c-.039.047-.079.1-.118.152-.053.075-.107.157-.159.246a5.652,5.652,0,0,0-.334.678c-.058.137-.114.284-.17.438q-.1.276-.2.584-.127.41-.246.869c-.021.079-.041.159-.061.24q-.062.251-.123.513c-.033.146-.065.293-.1.444q-.095.44-.184.909-.095.5-.183,1.02c-.021.122-.042.244-.062.369q-.109.669-.209,1.366v0c1.65,10.357,3.611,22.229,5.224,30.514.079-.268.154-.553.227-.851a39.132,39.132,0,0,0,.745-4.2c1.378-10.68.727-28.664-2.251-32.921" transform="translate(-70.286 -124.043)"/>
            </g>
          </g>
        </g>
        <path id="Path_2370" data-name="Path 2370" d="M51.686,105.532s-.75,34.958-.158,49.217c.616,14.831,6.647,63.392,6.647,63.392H67.4s.338-47.694.749-62.26c.447-15.879,2.679-50.349,2.679-50.349Z" transform="translate(-13.182 -27.118)" fill="#00848b" stroke="#444" stroke-width="2"/>
      </g>
    </g>
  </g>
</svg>
