<svg xmlns="http://www.w3.org/2000/svg" xmlns:xlink="http://www.w3.org/1999/xlink" width="90" height="90.107" viewBox="0 0 90 90.107">
  <defs>
    <linearGradient id="linear-gradient" x1="0.5" x2="0.5" y2="0.697" gradientUnits="objectBoundingBox">
      <stop offset="0" stop-color="#6ec9ce"/>
      <stop offset="1" stop-color="#f3d273"/>
    </linearGradient>
    <linearGradient id="linear-gradient-2" x1="0.5" x2="0.5" y2="1" gradientUnits="objectBoundingBox">
      <stop offset="0" stop-color="#6ec9ce"/>
      <stop offset="1" stop-color="#00848b"/>
    </linearGradient>
  </defs>
  <g id="icon_SpecialVehicles" transform="translate(0 0.07)">
    <g id="Group_1106" data-name="Group 1106" transform="translate(0.976 0.037)">
      <ellipse id="Ellipse_195" data-name="Ellipse 195" cx="42.549" cy="5.626" rx="42.549" ry="5.626" transform="translate(0 78.223)" fill="#aaa" opacity="0.35"/>
      <g id="SpecialVehicles">
        <g id="Rectangle_526" data-name="Rectangle 526" transform="translate(19.942 49.102)" fill="#f3d273" stroke="#444" stroke-width="2">
          <rect width="31.136" height="14.443" stroke="none"/>
          <rect x="1" y="1" width="29.136" height="12.443" fill="none"/>
        </g>
        <path id="Union_30" data-name="Union 30" d="M4,30.9a4,4,0,0,1-4-4V4A4,4,0,0,1,4,0H28.766a4.027,4.027,0,0,1,.685.059h1.577A6.814,6.814,0,0,1,36.414,3.59c.2.187,9.868,13.884,9.868,13.884s2.6,2.949,2.629,4.987q0,.3,0,.569c0,.049,0,.1,0,.146v.359c0,.47,0,.847,0,1.135v2.223a4,4,0,0,1-4,4H28.913l-.147,0Z" transform="translate(8.406 23.413)" stroke="#444" stroke-width="2" fill="url(#linear-gradient)"/>
        <g id="Rectangle_527" data-name="Rectangle 527" transform="translate(1.463 60.446)" stroke="#444" stroke-width="2" fill="url(#linear-gradient-2)">
          <rect width="68.228" height="25.524" rx="12.762" stroke="none"/>
          <rect x="1" y="1" width="66.228" height="23.524" rx="11.762" fill="none"/>
        </g>
        <rect id="Rectangle_529" data-name="Rectangle 529" width="51.171" height="11.344" rx="5.672" transform="translate(9.992 67.536)" fill="#444"/>
        <ellipse id="Ellipse_191" data-name="Ellipse 191" cx="3.415" cy="3.432" rx="3.415" ry="3.432" transform="translate(12.835 69.918)" fill="#f3d273"/>
        <ellipse id="Ellipse_192" data-name="Ellipse 192" cx="3.415" cy="3.432" rx="3.415" ry="3.432" transform="translate(25.627 69.918)" fill="#f3d273"/>
        <ellipse id="Ellipse_193" data-name="Ellipse 193" cx="3.415" cy="3.432" rx="3.415" ry="3.432" transform="translate(38.42 69.918)" fill="#f3d273"/>
        <ellipse id="Ellipse_194" data-name="Ellipse 194" cx="3.415" cy="3.432" rx="3.415" ry="3.432" transform="translate(51.213 69.918)" fill="#f3d273"/>
        <path id="Path_531" data-name="Path 531" d="M-19127.029-20436l27.389-27.732h6.848l-25.691,39.27" transform="translate(19175.293 20464.623)" fill="none" stroke="#444" stroke-width="2"/>
        <path id="Path_536" data-name="Path 536" d="M0,23.25V5.329H11.685V-6.68h7.429v-6.783" transform="translate(57.64 14.9)" fill="none" stroke="#444" stroke-width="2"/>
        <path id="Path_533" data-name="Path 533" d="M-18850.605-20464.375v59.738a2.976,2.976,0,0,0,1.656,2.732c1.309,1.174,2.068,1.6,2.068,3.9a4.019,4.019,0,0,1-4.377,4,4.213,4.213,0,0,1-4.283-4" transform="translate(18933.762 20464.375)" fill="none" stroke="#444" stroke-width="2"/>
        <path id="Path_534" data-name="Path 534" d="M-18843.4-19996.025h8.563" transform="translate(18922.254 20049.383)" fill="none" stroke="#444" stroke-linecap="round" stroke-width="2"/>
        <path id="Path_537" data-name="Path 537" d="M-19489.01-19757.588l5.32,21.75h19.271s.152-1.371-1.939-4.246-10.055-13.854-10.055-13.854-2.227-3.354-4.605-3.65C-19481.1-19757.584-19489.01-19757.588-19489.01-19757.588Z" transform="translate(19526.078 19781.098)" fill="#b5b5b5" stroke="#444" stroke-width="2"/>
      </g>
    </g>
    <rect id="Rectangle_530" data-name="Rectangle 530" width="90" height="90" transform="translate(0 0.037)" fill="none"/>
  </g>
</svg>
