<svg xmlns="http://www.w3.org/2000/svg" xmlns:xlink="http://www.w3.org/1999/xlink" width="91.942" height="90" viewBox="0 0 91.942 90">
  <defs>
    <linearGradient id="linear-gradient" x1="0.5" y1="0.601" x2="0.5" y2="1" gradientUnits="objectBoundingBox">
      <stop offset="0" stop-color="#6ec9ce"/>
      <stop offset="1" stop-color="#00848b"/>
    </linearGradient>
  </defs>
  <g id="icon_2wheeler" transform="translate(-185.997 -404)">
    <g id="icon" transform="translate(187 423.5)">
      <ellipse id="shadow" cx="44.022" cy="5.84" rx="44.022" ry="5.84" transform="translate(0.755 58.819)" fill="#aaa" opacity="0.35"/>
      <g id="Bike" transform="translate(0 0)">
        <g id="Ellipse_48" data-name="Ellipse 48" transform="translate(6.23 40.649)" fill="#444" stroke="#444" stroke-width="2">
          <ellipse cx="11.109" cy="11.109" rx="11.109" ry="11.109" stroke="none"/>
          <ellipse cx="11.109" cy="11.109" rx="10.109" ry="10.109" fill="none"/>
        </g>
        <g id="Ellipse_49" data-name="Ellipse 49" transform="translate(11.52 45.939)" fill="#b5b5b5" stroke="#444" stroke-width="1">
          <circle cx="5.819" cy="5.819" r="5.819" stroke="none"/>
          <circle cx="5.819" cy="5.819" r="5.319" fill="none"/>
        </g>
        <path id="Path_134" data-name="Path 134" d="M1110.3,3242.759s.051,7.307,0,7.424c.095-5.568,7.379-6.471,7.379-6.471l-1.39,12.283s10.37,15.324,10.412,15.406c9.8-1.1,16.072,5.933,16.072,5.933l-4.733,4.6-19.563,8.825h-37.26v-3.527s-27.87.042-27.884,0c-1.351-8.824,9.768-19.528,9.768-19.528a7.392,7.392,0,0,1,6.017-7c.109-.16,23.4,0,23.4,0s4.608,1.15,2.953,5.5c.1.18-6.788,6.068-6.384,11.126.087-.046-.692,7.065,11.235,7.576a16.657,16.657,0,0,0,16.824-9.214c.135.012,2.413-9.49-9.107-21.347-.085-.089.132.135-.1-.1a7.107,7.107,0,0,0,2.356-4.07" transform="translate(-1053.222 -3237.369)" stroke="#444" stroke-width="2" fill="url(#linear-gradient)"/>
        <path id="Path_143" data-name="Path 143" d="M1137.949,301.9s.025,3.966,6.2,6.211" transform="translate(-1080.83 -288.627)" fill="none" stroke="#444" stroke-width="2"/>
        <path id="Path_135" data-name="Path 135" d="M1149.25,3233.265v11.713" transform="translate(-1098.452 -3233.265)" fill="none" stroke="#444" stroke-width="2"/>
        <path id="Path_136" data-name="Path 136" d="M1149.25,3270.721l8.626-6.176" transform="translate(-1100.097 -3249.976)" fill="none" stroke="#444" stroke-width="2"/>
        <path id="Path_138" data-name="Path 138" d="M1058.768,3316.554s2.007-10.851,12.179-14.048c.253.085,14.634-4.318,16.232,3.664.081.025,1.131,5.41-3.351,10.384C1083.944,3316.614,1058.768,3316.554,1058.768,3316.554Z" transform="translate(-1055.834 -3266.874)" fill="#f3d273" stroke="#444" stroke-width="1"/>
        <path id="Path_139" data-name="Path 139" d="M1179.5,3301.107c-15.02,2.285-14.558,19.013-14.558,19.013h16.253l14.067-13.237S1190.4,3300.285,1179.5,3301.107Z" transform="translate(-1105.837 -3266.73)" fill="none" stroke="#444" stroke-width="2"/>
        <path id="Path_140" data-name="Path 140" d="M1103.042,3290.3c.065.06-30.817,0-30.817,0s.092-5.589,6.693-6.5c-.077-.029,22.29,0,22.29,0s3.139.629,3.659,3.207C1105.034,3286.93,1105.019,3289.705,1103.042,3290.3Z" transform="translate(-1062.173 -3260.5)" fill="#444" stroke="#444" stroke-width="2"/>
        <path id="Path_141" data-name="Path 141" d="M1106.846,3280.6v6.324" transform="translate(-1078.479 -3257.09)" fill="none" stroke="#444" stroke-width="2"/>
        <g id="Ellipse_50" data-name="Ellipse 50" transform="translate(65.477 40.649)" fill="#444" stroke="#444" stroke-width="2">
          <ellipse cx="11.109" cy="11.109" rx="11.109" ry="11.109" stroke="none"/>
          <ellipse cx="11.109" cy="11.109" rx="10.109" ry="10.109" fill="none"/>
        </g>
        <g id="Ellipse_51" data-name="Ellipse 51" transform="translate(70.767 45.939)" fill="#b5b5b5" stroke="#444" stroke-width="1">
          <circle cx="5.819" cy="5.819" r="5.819" stroke="none"/>
          <circle cx="5.819" cy="5.819" r="5.319" fill="none"/>
        </g>
        <path id="Path_142" data-name="Path 142" d="M1128.8,3240.2h6.943" transform="translate(-1077.749 -3233.851)" fill="none" stroke="#444" stroke-width="2"/>
      </g>
    </g>
    <rect id="Rectangle_1331" data-name="Rectangle 1331" width="90" height="90" transform="translate(187 404)" fill="none"/>
  </g>
</svg>
