<svg xmlns="http://www.w3.org/2000/svg" xmlns:xlink="http://www.w3.org/1999/xlink" width="124.881" height="121.207" viewBox="0 0 124.881 121.207">
  <defs>
    <linearGradient id="linear-gradient" x1="0.5" y1="0.273" x2="0.5" y2="0.903" gradientUnits="objectBoundingBox">
      <stop offset="0" stop-color="#6ec9ce"/>
      <stop offset="1" stop-color="#00848b"/>
    </linearGradient>
    <linearGradient id="linear-gradient-2" x1="0.5" y1="0.139" x2="0.5" y2="0.775" gradientUnits="objectBoundingBox">
      <stop offset="0" stop-color="#f4f4f4"/>
      <stop offset="1" stop-color="#f3d273"/>
    </linearGradient>
    <linearGradient id="linear-gradient-3" x1="0.5" y1="0.282" x2="0.5" y2="0.954" gradientUnits="objectBoundingBox">
      <stop offset="0" stop-color="#fff"/>
      <stop offset="1" stop-color="#f3d273"/>
    </linearGradient>
    <linearGradient id="linear-gradient-5" y1="0.241" y2="0.688" xlink:href="#linear-gradient-2"/>
    <filter id="Path_458" x="59.683" y="56.859" width="16.789" height="26.823" filterUnits="userSpaceOnUse">
      <feOffset input="SourceAlpha"/>
      <feGaussianBlur stdDeviation="2" result="blur"/>
      <feFlood flood-opacity="0.22"/>
      <feComposite operator="in" in2="blur"/>
      <feComposite in="SourceGraphic"/>
    </filter>
    <filter id="Path_457" x="74.5" y="56.808" width="18.392" height="30.289" filterUnits="userSpaceOnUse">
      <feOffset input="SourceAlpha"/>
      <feGaussianBlur stdDeviation="2" result="blur-2"/>
      <feFlood flood-opacity="0.22"/>
      <feComposite operator="in" in2="blur-2"/>
      <feComposite in="SourceGraphic"/>
    </filter>
  </defs>
  <g id="Icon_standalone" transform="translate(-0.44 1.021)">
    <rect id="Rectangle_309" data-name="Rectangle 309" width="120" height="120" transform="translate(0.44 0.186)" fill="none"/>
    <g id="Icon_standalone-2" data-name="Icon_standalone" transform="translate(4.881 -1.207)">
      <rect id="Rectangle_309-2" data-name="Rectangle 309" width="120" height="120" transform="translate(0.44 0.186)" fill="none"/>
      <g id="Group_3903" data-name="Group 3903" transform="translate(-1319.932 -280.876)">
        <rect id="Rectangle_1092" data-name="Rectangle 1092" width="99.898" height="99.898" transform="translate(1325 297.998)" fill="none"/>
        <g id="Super_Topup_Mediclaim" data-name="Super Topup Mediclaim" transform="translate(1245.404 -237.331)">
          <g id="Group_808" data-name="Group 808" transform="translate(77.992 532.299)">
            <g id="Group_805" data-name="Group 805" transform="translate(0 0)">
              <g id="Group_4939" data-name="Group 4939" transform="translate(6 5.805)">
                <path id="Subtraction_10" data-name="Subtraction 10" d="M90.99,47.438H0A48.886,48.886,0,0,1,3.575,28.973a47.442,47.442,0,0,1,9.75-15.079A45.287,45.287,0,0,1,27.786,3.728a43.925,43.925,0,0,1,35.418,0A45.29,45.29,0,0,1,77.665,13.894a47.442,47.442,0,0,1,9.75,15.079A48.884,48.884,0,0,1,90.99,47.437Z" transform="translate(0 0)" stroke="#444" stroke-width="2" fill="url(#linear-gradient)"/>
                <line id="Line_78" data-name="Line 78" y2="45.995" transform="matrix(0.966, 0.259, -0.259, 0.966, 57.71, 2.207)" fill="none" stroke="#444" stroke-width="2"/>
                <line id="Line_79" data-name="Line 79" y2="45.995" transform="translate(68.455 6.658) rotate(30)" fill="none" stroke="#444" stroke-width="2"/>
                <line id="Line_80" data-name="Line 80" y2="45.995" transform="translate(76.182 14.077) rotate(45)" fill="none" stroke="#444" stroke-width="2"/>
                <line id="Line_81" data-name="Line 81" x1="38.577" y2="21.514" transform="translate(45.66 24.463)" fill="none" stroke="#444" stroke-width="2"/>
                <line id="Line_82" data-name="Line 82" y2="45.995" transform="matrix(0.259, 0.966, -0.966, 0.259, 88.604, 34.849)" fill="none" stroke="#444" stroke-width="2"/>
                <line id="Line_83" data-name="Line 83" y1="45.995" transform="matrix(-0.966, 0.259, -0.259, -0.966, 46.362, 46.634)" fill="none" stroke="#444" stroke-width="2"/>
                <line id="Line_84" data-name="Line 84" y1="45.995" transform="translate(46.698 46.491) rotate(150)" fill="none" stroke="#444" stroke-width="2"/>
                <line id="Line_85" data-name="Line 85" y1="45.995" transform="translate(47.084 46.6) rotate(135)" fill="none" stroke="#444" stroke-width="2"/>
                <line id="Line_86" data-name="Line 86" x2="41.543" y2="23.621" transform="translate(6.524 22.979)" fill="none" stroke="#444" stroke-width="2"/>
                <line id="Line_87" data-name="Line 87" x2="45.995" y2="11.905" transform="translate(2.072 34.849)" fill="none" stroke="#444" stroke-width="2"/>
                <line id="Line_88" data-name="Line 88" y2="45.995" transform="translate(46.089 0.723)" fill="none" stroke="#444" stroke-width="2"/>
              </g>
              <g id="Group_4940" data-name="Group 4940" transform="translate(20 26.889)">
                <g id="Group_804" data-name="Group 804" transform="translate(0 0)">
                  <g id="Group_800" data-name="Group 800" transform="translate(0 0.1)">
                    <path id="Union_24" data-name="Union 24" d="M2.981,56.474V44.346A4.474,4.474,0,0,1,0,40.128V20.867a6,6,0,0,1,6-6h4.433a7.434,7.434,0,1,1,7.453-7.434,7.444,7.444,0,0,1-7.453,7.434h4.433a6,6,0,0,1,6,6V40.128a4.474,4.474,0,0,1-2.981,4.218V56.474a7.453,7.453,0,0,1-14.906,0Z" stroke="#444" stroke-width="2" fill="url(#linear-gradient-2)"/>
                    <line id="Line_103" data-name="Line 103" y1="20.03" transform="translate(10.54 42.928)" fill="none" stroke="#444" stroke-width="2"/>
                  </g>
                  <g id="Group_802" data-name="Group 802" transform="translate(32.584 0)">
                    <rect id="Rectangle_362" data-name="Rectangle 362" width="15.094" height="33.961" transform="translate(7.462 29.786)" stroke="#444" stroke-width="2" fill="url(#linear-gradient-3)"/>
                    <g id="Group_801" data-name="Group 801" transform="translate(0)">
                      <path id="Union_27" data-name="Union 27" d="M3.177,46.348l1.1-5.821A4.446,4.446,0,0,1,.1,35.157L3.684,18.267c.518-2.407,3.494-3.473,5.285-3.43q.129-.005.252,0H20.928c.07,0,.141,0,.211,0,2.676-.006,4.764,1.024,5.277,3.43l3.59,16.887a4.446,4.446,0,0,1-4.185,5.37l1.1,5.821ZM7.631,7.42a7.419,7.419,0,1,1,7.416,7.417A7.418,7.418,0,0,1,7.631,7.42Z" stroke="#444" stroke-width="2" fill="url(#linear-gradient-3)"/>
                      <line id="Line_104" data-name="Line 104" y1="17.063" transform="translate(15.049 45.995)" fill="none" stroke="#444" stroke-width="2"/>
                    </g>
                  </g>
                  <g id="Group_867" data-name="Group 867" transform="translate(17.944 16.309)">
                    <path id="Union_28" data-name="Union 28" d="M3,39.929V33.3a6,6,0,0,1-3-5.2V17.86a6,6,0,0,1,6-6h9.023a6,6,0,0,1,6,6V28.1a6,6,0,0,1-3,5.2v6.634A7.509,7.509,0,1,1,3,39.929Zm1.5-34a6.007,6.007,0,0,1,12.013,0,6.007,6.007,0,0,1-12.013,0Z" transform="translate(0 0)" stroke="#444" stroke-width="2" fill="url(#linear-gradient-5)"/>
                    <line id="Line_105" data-name="Line 105" y1="15.579" transform="translate(10.401 31.17)" fill="none" stroke="#444" stroke-width="2"/>
                  </g>
                </g>
                <g transform="matrix(1, 0, 0, 1, -27.9, -40.8)" filter="url(#Path_458)">
                  <path id="Path_458-2" data-name="Path 458" d="M2583.143,3859.012l2.826-14.438" transform="translate(-2516.48 -3781.52)" fill="none" stroke="#444" stroke-width="2"/>
                </g>
                <g transform="matrix(1, 0, 0, 1, -27.9, -40.8)" filter="url(#Path_457)">
                  <path id="Path_457-2" data-name="Path 457" d="M2587.595,3862.378l-1.67-6.677-2.782-11.127" transform="translate(-2501.67 -3781.52)" fill="none" stroke="#444" stroke-width="2"/>
                </g>
              </g>
              <rect id="Rectangle_296" data-name="Rectangle 296" width="102" height="102" fill="none"/>
            </g>
          </g>
          <g id="Group_812" data-name="Group 812" transform="translate(110.755 598.783)">
            <g id="Ellipse_168" data-name="Ellipse 168" transform="translate(0.236 -0.484)" fill="#6ec9ce" stroke="#444" stroke-width="2">
              <circle cx="15.5" cy="15.5" r="15.5" stroke="none"/>
              <circle cx="15.5" cy="15.5" r="14.5" fill="none"/>
            </g>
            <g id="Group_809" data-name="Group 809" transform="translate(10.71 8.477)">
              <path id="Path_455" data-name="Path 455" d="M302.689,380.614l5.122-5.3,5.122,5.3" transform="translate(-302.689 -375.311)" fill="none" stroke="#444" stroke-linecap="round" stroke-width="2"/>
              <path id="Path_456" data-name="Path 456" d="M308.581,376.311v12.806" transform="translate(-303.459 -376.311)" fill="none" stroke="#444" stroke-linecap="round" stroke-width="2"/>
            </g>
          </g>
        </g>
      </g>
    </g>
  </g>
</svg>
