<svg xmlns="http://www.w3.org/2000/svg" xmlns:xlink="http://www.w3.org/1999/xlink" width="125.987" height="124.813" viewBox="0 0 125.987 124.813">
  <defs>
    <linearGradient id="linear-gradient" x1="0.5" y1="0.109" x2="0.5" y2="0.871" gradientUnits="objectBoundingBox">
      <stop offset="0" stop-color="#6ec9ce"/>
      <stop offset="1" stop-color="#f3d273"/>
    </linearGradient>
  </defs>
  <g id="Icon_Marriene_Policy" data-name="Icon_Marriene Policy" transform="translate(-853.164 -469.34)">
    <g id="Group_3899" data-name="Group 3899" transform="translate(853.164 469.34)">
      <g id="Group_3900" data-name="Group 3900" transform="translate(0 105.983)">
        <g id="Group_1108" data-name="Group 1108" transform="translate(0 0)">
          <g id="Group_1106" data-name="Group 1106">
            <g id="Group_3796" data-name="Group 3796">
              <ellipse id="Ellipse_195" data-name="Ellipse 195" cx="62.993" cy="9.186" rx="62.993" ry="9.186" fill="#aaa" opacity="0.35"/>
            </g>
          </g>
        </g>
      </g>
      <rect id="Rectangle_1308" data-name="Rectangle 1308" width="124.813" height="124.813" transform="translate(0.318 0)" fill="none"/>
      <g id="Group_4689" data-name="Group 4689" transform="translate(2.843 17.987)">
        <g id="Group_4000" data-name="Group 4000" transform="translate(46.762)">
          <g id="Rectangle_726" data-name="Rectangle 726" stroke="#444" stroke-width="2" fill="url(#linear-gradient)">
            <rect width="73.54" height="73.54" rx="4" stroke="none"/>
            <rect x="1" y="1" width="71.54" height="71.54" rx="3" fill="none"/>
          </g>
          <g id="Group_1602" data-name="Group 1602" transform="translate(12.257 10.506)">
            <line id="Line_183" data-name="Line 183" y2="52.528" transform="translate(0)" fill="none" stroke="#444" stroke-linecap="round" stroke-width="4"/>
            <line id="Line_184" data-name="Line 184" y2="52.528" transform="translate(12.257)" fill="none" stroke="#444" stroke-linecap="round" stroke-width="4"/>
            <line id="Line_185" data-name="Line 185" y2="52.528" transform="translate(24.513)" fill="none" stroke="#444" stroke-linecap="round" stroke-width="4"/>
            <line id="Line_186" data-name="Line 186" y2="52.528" transform="translate(36.77)" fill="none" stroke="#444" stroke-linecap="round" stroke-width="4"/>
            <line id="Line_187" data-name="Line 187" y2="52.528" transform="translate(49.027)" fill="none" stroke="#444" stroke-linecap="round" stroke-width="4"/>
          </g>
        </g>
        <g id="Group_4001" data-name="Group 4001" transform="translate(3.211 36.771)">
          <path id="Path_819" data-name="Path 819" d="M-18679.393-15052.267h27.609l4.594,6.754h62.775l-6.727,13.721h-78.322Z" transform="translate(18683.145 15075.795)" fill="#628491" stroke="#444" stroke-width="2"/>
          <path id="Path_820" data-name="Path 820" d="M-18656.555-14982.345l-2.311,2.467-2.309,2.467" transform="translate(18670.641 15026.349)" fill="none" stroke="#444" stroke-width="2"/>
          <path id="Path_821" data-name="Path 821" d="M-18378.539-14982.345l-2.939,5.859" transform="translate(18470.453 15026.349)" fill="none" stroke="#444" stroke-width="2"/>
          <path id="Path_822" data-name="Path 822" d="M-18669.643-15103.744v15h21.633l-6.977-15Z" transform="translate(18676.539 15112.2)" fill="#e1f3f4" stroke="#444" stroke-width="2"/>
          <g id="Rectangle_727" data-name="Rectangle 727" transform="translate(9.797 0)" fill="#fff" stroke="#444" stroke-width="2">
            <rect width="8.767" height="8.897" stroke="none"/>
            <rect x="1" y="1" width="6.767" height="6.897" fill="none"/>
          </g>
          <g id="Rectangle_729" data-name="Rectangle 729" transform="translate(69.832 12.058)" fill="#b5b5b5" stroke="#444" stroke-width="2">
            <rect width="18.544" height="19.574" stroke="none"/>
            <rect x="1" y="1" width="16.544" height="17.574" fill="none"/>
          </g>
          <g id="Rectangle_731" data-name="Rectangle 731" transform="translate(55.058 19.972)" fill="#f3d273" stroke="#444" stroke-width="2">
            <rect width="17.535" height="11.659" stroke="none"/>
            <rect x="1" y="1" width="15.535" height="9.659" fill="none"/>
          </g>
          <g id="Rectangle_732" data-name="Rectangle 732" transform="translate(55.058 9.295)" fill="#f3d273" stroke="#444" stroke-width="2">
            <rect width="17.535" height="13.439" stroke="none"/>
            <rect x="1" y="1" width="15.535" height="11.439" fill="none"/>
          </g>
          <g id="Rectangle_733" data-name="Rectangle 733" transform="translate(55.058 0.398)" fill="#f3d273" stroke="#444" stroke-width="2">
            <rect width="17.535" height="11.659" stroke="none"/>
            <rect x="1" y="1" width="15.535" height="9.659" fill="none"/>
          </g>
          <line id="Line_188" data-name="Line 188" x2="4.905" transform="translate(11.556 12.919)" fill="none" stroke="#444" stroke-linecap="round" stroke-width="2"/>
          <line id="Line_189" data-name="Line 189" x2="9.811" transform="translate(11.556 18.19)" fill="none" stroke="#444" stroke-linecap="round" stroke-width="2"/>
          <g id="Rectangle_734" data-name="Rectangle 734" transform="translate(39.278 19.972)" fill="#f3d273" stroke="#444" stroke-width="2">
            <rect width="18.544" height="11.659" stroke="none"/>
            <rect x="1" y="1" width="16.544" height="9.659" fill="none"/>
          </g>
          <g id="Rectangle_735" data-name="Rectangle 735" transform="translate(39.278 9.295)" fill="#f3d273" stroke="#444" stroke-width="2">
            <rect width="18.544" height="13.439" stroke="none"/>
            <rect x="1" y="1" width="16.544" height="11.439" fill="none"/>
          </g>
          <g id="Rectangle_736" data-name="Rectangle 736" transform="translate(39.278 0.398)" fill="#f3d273" stroke="#444" stroke-width="2">
            <rect width="18.544" height="11.659" stroke="none"/>
            <rect x="1" y="1" width="16.544" height="9.659" fill="none"/>
          </g>
          <circle id="Ellipse_253" data-name="Ellipse 253" cx="2.072" cy="2.072" r="2.072" transform="translate(11.049 27.622)" fill="#fff"/>
          <path id="Path_823" data-name="Path 823" d="M-18682.824-14954.156s4.676,6.721,9.7,0" transform="translate(18682.824 15002.493)" fill="none" stroke="#00848b" stroke-width="2"/>
          <path id="Path_2257" data-name="Path 2257" d="M-18682.824-14954.156s4.676,6.721,9.7,0" transform="translate(18682.824 15009.212)" fill="none" stroke="#00848b" stroke-width="2"/>
          <path id="Path_824" data-name="Path 824" d="M-18682.824-14954.156s4.676,6.721,9.7,0" transform="translate(18692.49 15002.493)" fill="none" stroke="#00848b" stroke-width="2"/>
          <path id="Path_2258" data-name="Path 2258" d="M-18682.824-14954.156s4.676,6.721,9.7,0" transform="translate(18692.49 15009.212)" fill="none" stroke="#00848b" stroke-width="2"/>
          <path id="Path_825" data-name="Path 825" d="M-18682.824-14954.156s4.676,6.721,9.7,0" transform="translate(18702.158 15002.493)" fill="none" stroke="#00848b" stroke-width="2"/>
          <path id="Path_2259" data-name="Path 2259" d="M-18682.824-14954.156s4.676,6.721,9.7,0" transform="translate(18702.158 15009.212)" fill="none" stroke="#00848b" stroke-width="2"/>
          <path id="Path_826" data-name="Path 826" d="M-18682.824-14954.156s4.676,6.721,9.7,0" transform="translate(18711.828 15002.493)" fill="none" stroke="#00848b" stroke-width="2"/>
          <path id="Path_2260" data-name="Path 2260" d="M-18682.824-14954.156s4.676,6.721,9.7,0" transform="translate(18711.828 15009.212)" fill="none" stroke="#00848b" stroke-width="2"/>
          <path id="Path_827" data-name="Path 827" d="M-18682.824-14954.156s4.676,6.721,9.7,0" transform="translate(18721.496 15002.493)" fill="none" stroke="#00848b" stroke-width="2"/>
          <path id="Path_2261" data-name="Path 2261" d="M-18682.824-14954.156s4.676,6.721,9.7,0" transform="translate(18721.496 15009.212)" fill="none" stroke="#00848b" stroke-width="2"/>
          <path id="Path_828" data-name="Path 828" d="M-18682.824-14954.156s4.676,6.721,9.7,0" transform="translate(18731.162 15002.493)" fill="none" stroke="#00848b" stroke-width="2"/>
          <path id="Path_2262" data-name="Path 2262" d="M-18682.824-14954.156s4.676,6.721,9.7,0" transform="translate(18731.162 15009.212)" fill="none" stroke="#00848b" stroke-width="2"/>
          <path id="Path_829" data-name="Path 829" d="M-18682.824-14954.156s4.676,6.721,9.7,0" transform="translate(18740.83 15002.493)" fill="none" stroke="#00848b" stroke-width="2"/>
          <path id="Path_2263" data-name="Path 2263" d="M-18682.824-14954.156s4.676,6.721,9.7,0" transform="translate(18740.83 15009.212)" fill="none" stroke="#00848b" stroke-width="2"/>
          <path id="Path_830" data-name="Path 830" d="M-18682.824-14954.156s4.676,6.721,9.7,0" transform="translate(18750.498 15002.493)" fill="none" stroke="#00848b" stroke-width="2"/>
          <path id="Path_2264" data-name="Path 2264" d="M-18682.824-14954.156s4.676,6.721,9.7,0" transform="translate(18750.498 15009.212)" fill="none" stroke="#00848b" stroke-width="2"/>
          <path id="Path_831" data-name="Path 831" d="M-18682.824-14954.156s4.676,6.721,9.7,0" transform="translate(18760.168 15002.493)" fill="none" stroke="#00848b" stroke-width="2"/>
          <path id="Path_2265" data-name="Path 2265" d="M-18682.824-14954.156s4.676,6.721,9.7,0" transform="translate(18760.168 15009.212)" fill="none" stroke="#00848b" stroke-width="2"/>
          <path id="Path_832" data-name="Path 832" d="M-18682.824-14954.156s4.676,6.721,9.7,0" transform="translate(18769.836 15002.493)" fill="none" stroke="#00848b" stroke-width="2"/>
          <path id="Path_2266" data-name="Path 2266" d="M-18682.824-14954.156s4.676,6.721,9.7,0" transform="translate(18769.836 15009.212)" fill="none" stroke="#00848b" stroke-width="2"/>
          <circle id="Ellipse_254" data-name="Ellipse 254" cx="2.072" cy="2.072" r="2.072" transform="translate(17.954 27.622)" fill="#fff"/>
          <circle id="Ellipse_255" data-name="Ellipse 255" cx="2.072" cy="2.072" r="2.072" transform="translate(24.86 27.622)" fill="#fff"/>
          <path id="Path_833" data-name="Path 833" d="M-18682.824-14954.156s4.676,6.721,9.7,0" transform="translate(18778.119 15002.493)" fill="none" stroke="#00848b" stroke-width="2"/>
          <path id="Path_2267" data-name="Path 2267" d="M-18682.824-14954.156s4.676,6.721,9.7,0" transform="translate(18778.119 15009.212)" fill="none" stroke="#00848b" stroke-width="2"/>
        </g>
        <g id="Group_4002" data-name="Group 4002" transform="translate(12.488 9.491)">
          <path id="Path_834" data-name="Path 834" d="M-19076.279-15154.936l19.529-19.529" transform="translate(19076.279 15174.465)" fill="none" stroke="#2c2b7c" stroke-linecap="round" stroke-width="4"/>
          <path id="Path_835" data-name="Path 835" d="M-19052.719-15174.463h12.285v13.193" transform="translate(19060.088 15174.464)" fill="none" stroke="#2c2b7c" stroke-linecap="round" stroke-width="4"/>
        </g>
        <path id="Path_2256" data-name="Path 2256" d="M-19091.752-15170.53l21.125-21.125" transform="translate(19117.389 15210.912)" fill="none" stroke="#6ec9ce" stroke-linecap="round" stroke-width="2" stroke-dasharray="2 4"/>
        <g id="Ellipse_828" data-name="Ellipse 828" transform="matrix(0.978, -0.208, 0.208, 0.978, 31.713, 41.952)" fill="none" stroke="#ace0e3" stroke-width="1">
          <circle cx="3.783" cy="3.783" r="3.783" stroke="none"/>
          <circle cx="3.783" cy="3.783" r="3.283" fill="none"/>
        </g>
        <g id="Ellipse_829" data-name="Ellipse 829" transform="matrix(0.978, -0.208, 0.208, 0.978, 0, 32.715)" fill="none" stroke="#f3d273" stroke-width="1">
          <circle cx="5.265" cy="5.265" r="5.265" stroke="none"/>
          <circle cx="5.265" cy="5.265" r="4.765" fill="none"/>
        </g>
        <g id="Ellipse_831" data-name="Ellipse 831" transform="matrix(0.978, -0.208, 0.208, 0.978, 107.814, 75.729)" fill="none" stroke="#f3d273" stroke-width="1">
          <circle cx="5.265" cy="5.265" r="5.265" stroke="none"/>
          <circle cx="5.265" cy="5.265" r="4.765" fill="none"/>
        </g>
        <g id="Ellipse_830" data-name="Ellipse 830" transform="matrix(0.978, -0.208, 0.208, 0.978, 36.2, 4.127)" fill="none" stroke="#ace0e3" stroke-width="1">
          <circle cx="3.783" cy="3.783" r="3.783" stroke="none"/>
          <circle cx="3.783" cy="3.783" r="3.283" fill="none"/>
        </g>
      </g>
    </g>
  </g>
</svg>
