<svg xmlns="http://www.w3.org/2000/svg" xmlns:xlink="http://www.w3.org/1999/xlink" width="135" height="120" viewBox="0 0 135 120">
  <defs>
    <linearGradient id="linear-gradient" x1="0.5" y1="0.198" x2="0.5" y2="0.849" gradientUnits="objectBoundingBox">
      <stop offset="0" stop-color="#6ec9ce"/>
      <stop offset="1" stop-color="#00848b"/>
    </linearGradient>
  </defs>
  <g id="Arogya_Sanjeevani" data-name="Arogya Sanjeevani" transform="translate(-207 -436.368)">
    <g id="Group_713" data-name="Group 713" transform="translate(231 463.998)">
      <g id="Group_680" data-name="Group 680" transform="translate(0 0)">
        <path id="Union_6" data-name="Union 6" d="M43,81.868C33.876,71.605,6.707,41.036,6.707,41.036-5.024,27.887,2.21,13.231,2.17,13.07,10.215-2.3,24.347.143,24.347.143,41.525,2.357,42.891,17.285,43,19.531,43.108,17.285,44.477,2.357,61.651.143c0,0,14.132-2.447,22.179,12.928-.036.16,7.195,14.816-4.54,27.965C79.062,41.32,43,82,43,82Z" transform="translate(0 0)" stroke="#444" stroke-width="2" fill="url(#linear-gradient)"/>
        <g id="Group_378" data-name="Group 378" transform="translate(12.956 18.737)">
          <line id="Line_74" data-name="Line 74" y2="7.638" transform="translate(3.464)" fill="none" stroke="#2c2b7c" stroke-linecap="round" stroke-width="2"/>
          <line id="Line_75" data-name="Line 75" y2="6.928" transform="translate(6.928 3.819) rotate(90)" fill="none" stroke="#2c2b7c" stroke-linecap="round" stroke-width="2"/>
        </g>
        <g id="Group_379" data-name="Group 379" transform="translate(64.371 15.377)">
          <line id="Line_76" data-name="Line 76" y2="12.813" transform="translate(5.811)" fill="none" stroke="#2c2b7c" stroke-linecap="round" stroke-width="2"/>
          <line id="Line_77" data-name="Line 77" y2="11.621" transform="translate(11.621 6.406) rotate(90)" fill="none" stroke="#2c2b7c" stroke-linecap="round" stroke-width="2"/>
        </g>
        <g id="Group_380" data-name="Group 380" transform="translate(24.995 23.812)">
          <path id="Path_311" data-name="Path 311" d="M11927.693,9297.207v43.737" transform="translate(-11909.69 -9284.467)" fill="none" stroke="#444" stroke-linecap="round" stroke-width="2"/>
          <path id="Path_312" data-name="Path 312" d="M11927.691,9308.4c-.054-.127.408-12.081,11.7-7.623C11939.448,9300.733,11938.711,9313.336,11927.691,9308.4Z" transform="translate(-11907.104 -9299.779)" fill="#f3d273" stroke="#444" stroke-width="2"/>
          <path id="Path_313" data-name="Path 313" d="M11939.393,9308.4c.05-.127-.41-12.081-11.7-7.623C11927.636,9300.733,11928.373,9313.336,11939.393,9308.4Z" transform="translate(-11924.229 -9299.669)" fill="#f3d273" stroke="#444" stroke-width="2"/>
          <path id="Path_314" data-name="Path 314" d="M11927.7,9310.5c-.067-.162.507-15.025,14.547-9.479C11942.314,9300.969,11941.395,9316.635,11927.7,9310.5Z" transform="translate(-11906.162 -9287.418)" fill="#f3d273" stroke="#444" stroke-width="2"/>
          <path id="Path_315" data-name="Path 315" d="M11942.24,9310.5c.067-.162-.507-15.025-14.549-9.479C11927.619,9300.969,11928.538,9316.635,11942.24,9310.5Z" transform="translate(-11927.688 -9287.041)" fill="#f3d273" stroke="#444" stroke-width="2"/>
          <path id="Path_316" data-name="Path 316" d="M11927.7,9310.937c-.067-.169.528-15.642,15.15-9.868C11942.918,9301.014,11941.958,9317.33,11927.7,9310.937Z" transform="translate(-11906.859 -9273.179)" fill="#f3d273" stroke="#444" stroke-width="2"/>
          <path id="Path_317" data-name="Path 317" d="M11942.842,9310.937c.067-.169-.53-15.642-15.15-9.868C11927.619,9301.014,11928.574,9317.33,11942.842,9310.937Z" transform="translate(-11925.953 -9272.172)" fill="#f3d273" stroke="#444" stroke-width="2"/>
          <path id="Path_321" data-name="Path 321" d="M11759,8202.835s3.207-4.8,7.052-6.769" transform="translate(-11740.998 -8174.946)" fill="none" stroke="#444" stroke-linecap="round" stroke-width="2"/>
          <path id="Path_322" data-name="Path 322" d="M11766.054,8202.835s-3.209-4.8-7.052-6.769" transform="translate(-11747.971 -8174.946)" fill="none" stroke="#444" stroke-linecap="round" stroke-width="2"/>
          <path id="Path_323" data-name="Path 323" d="M11759,8202.835s3.207-4.8,7.052-6.769" transform="translate(-11740.998 -8160.851)" fill="none" stroke="#444" stroke-linecap="round" stroke-width="2"/>
          <path id="Path_324" data-name="Path 324" d="M11766.054,8202.835s-3.209-4.8-7.052-6.769" transform="translate(-11747.971 -8160.851)" fill="none" stroke="#444" stroke-linecap="round" stroke-width="2"/>
          <path id="Path_325" data-name="Path 325" d="M11759.833,8191.5s-2.562-4.287-5.967-5.4" transform="translate(-11741.827 -8179.03)" fill="none" stroke="#444" stroke-linecap="round" stroke-width="2"/>
          <path id="Path_326" data-name="Path 326" d="M11753.866,8191.5s2.564-4.287,5.967-5.4" transform="translate(-11736.017 -8179.03)" fill="none" stroke="#444" stroke-linecap="round" stroke-width="2"/>
        </g>
      </g>
    </g>
    <rect id="Rectangle_307" data-name="Rectangle 307" width="89" height="89" transform="translate(230 459.987)" fill="none"/>
    <g id="Group_4542" data-name="Group 4542" transform="translate(207.122 436.005)">
      <g id="Group_715" data-name="Group 715" transform="translate(-0.124 28.007)">
        <ellipse id="Ellipse_144" data-name="Ellipse 144" cx="67.5" cy="8.026" rx="67.5" ry="8.026" transform="translate(0.002 76.303)" fill="#aaa" opacity="0.35"/>
      </g>
      <rect id="Rectangle_308" data-name="Rectangle 308" width="119.791" height="119.791" transform="translate(7.284 0.362)" fill="none"/>
    </g>
  </g>
</svg>
