<svg xmlns="http://www.w3.org/2000/svg" xmlns:xlink="http://www.w3.org/1999/xlink" width="188.111" height="158" viewBox="0 0 188.111 158">
  <defs>
    <linearGradient id="linear-gradient" x1="0.5" y1="0.348" x2="0.5" y2="0.847" gradientUnits="objectBoundingBox">
      <stop offset="0" stop-color="#6ec9ce"/>
      <stop offset="1" stop-color="#00848b"/>
    </linearGradient>
  </defs>
  <g id="Group_724" data-name="Group 724" transform="translate(-720.466 -443)">
    <g id="Group_723" data-name="Group 723" transform="translate(722 443)">
      <ellipse id="Ellipse_148" data-name="Ellipse 148" cx="72.5" cy="10" rx="72.5" ry="10" transform="translate(23 138)" fill="#aaa" opacity="0.35"/>
      <g id="Group_681" data-name="Group 681">
        <g id="Path_346" data-name="Path 346" transform="translate(17.853 6.583)" fill="url(#linear-gradient)">
          <path d="M 71.43212890625 141.3642730712891 C 61.99068832397461 141.3642730712891 52.83246994018555 139.5154876708984 44.21184921264648 135.8692626953125 C 40.06840896606445 134.1167449951172 36.07192993164062 131.947509765625 32.33345031738281 129.4218444824219 C 28.6301097869873 126.9199066162109 25.1475887298584 124.0465698242188 21.9826488494873 120.8816299438477 C 18.81770896911621 117.716667175293 15.94434928894043 114.2341461181641 13.44242858886719 110.5308074951172 C 10.91674900054932 106.7923278808594 8.747529029846191 102.7958526611328 6.995008945465088 98.65241241455078 C 3.348788976669312 90.03179168701172 1.500008940696716 80.87356567382812 1.500008940696716 71.43212890625 C 1.500008940696716 61.99068832397461 3.348788976669312 52.83246994018555 6.995008945465088 44.21184921264648 C 8.747529029846191 40.06840896606445 10.91674900054932 36.07192993164062 13.44242858886719 32.33345031738281 C 15.94434928894043 28.6301097869873 18.81770896911621 25.1475887298584 21.9826488494873 21.9826488494873 C 25.1475887298584 18.81770896911621 28.6301097869873 15.94434928894043 32.33345031738281 13.44242858886719 C 36.07192993164062 10.91674900054932 40.06840896606445 8.747529029846191 44.21184921264648 6.995008945465088 C 52.83246994018555 3.348788976669312 61.99068832397461 1.500008940696716 71.43212890625 1.500008940696716 C 80.87356567382812 1.500008940696716 90.03179168701172 3.348788976669312 98.65241241455078 6.995008945465088 C 102.7958526611328 8.747529029846191 106.7923278808594 10.91674900054932 110.5308074951172 13.44242858886719 C 114.2341461181641 15.94434928894043 117.716667175293 18.81770896911621 120.8816299438477 21.9826488494873 C 124.0465698242188 25.1475887298584 126.9199066162109 28.6301097869873 129.4218444824219 32.33345031738281 C 131.947509765625 36.07192993164062 134.1167449951172 40.06840896606445 135.8692626953125 44.21184921264648 C 139.5154876708984 52.83246994018555 141.3642730712891 61.99068832397461 141.3642730712891 71.43212890625 C 141.3642730712891 80.87356567382812 139.5154876708984 90.03179168701172 135.8692626953125 98.65241241455078 C 134.1167449951172 102.7958526611328 131.947509765625 106.7923278808594 129.4218444824219 110.5308074951172 C 126.9199066162109 114.2341461181641 124.0465698242188 117.716667175293 120.8816070556641 120.8816070556641 C 117.716667175293 124.0465698242188 114.2341461181641 126.9199066162109 110.5308074951172 129.4218444824219 C 106.7923278808594 131.947509765625 102.7958526611328 134.1167449951172 98.65241241455078 135.8692626953125 C 90.03179168701172 139.5154876708984 80.87356567382812 141.3642730712891 71.43212890625 141.3642730712891 Z" stroke="none"/>
          <path d="M 71.43212890625 3 C 62.19252777099609 3 53.23089599609375 4.808914184570312 44.79617309570312 8.376510620117188 C 40.741943359375 10.09132385253906 36.83139801025391 12.21389770507812 33.17317199707031 14.68536376953125 C 29.54891967773438 17.13385772705078 26.14075469970703 19.94587707519531 23.04331970214844 23.04331970214844 C 19.94587707519531 26.14075469970703 17.13385772705078 29.54891967773438 14.68536376953125 33.17317199707031 C 12.21389770507812 36.83139801025391 10.09132385253906 40.741943359375 8.376510620117188 44.79617309570312 C 4.808914184570312 53.23089599609375 3 62.19252777099609 3 71.43212890625 C 3 80.67173767089844 4.808914184570312 89.63336181640625 8.376510620117188 98.06808471679688 C 10.09132385253906 102.122314453125 12.21389770507812 106.0328598022461 14.68536376953125 109.6910858154297 C 17.13385772705078 113.3153381347656 19.94587707519531 116.723503112793 23.04331970214844 119.8209381103516 C 26.14075469970703 122.9183807373047 29.54891967773438 125.7304000854492 33.17317199707031 128.1788940429688 C 36.83139801025391 130.6503601074219 40.741943359375 132.77294921875 44.79617309570312 134.4877471923828 C 53.23089599609375 138.0553436279297 62.19252777099609 139.8642578125 71.43212890625 139.8642578125 C 80.67173767089844 139.8642578125 89.63336181640625 138.0553436279297 98.06808471679688 134.4877471923828 C 102.122314453125 132.77294921875 106.0328598022461 130.6503601074219 109.6910858154297 128.1788940429688 C 113.3153381347656 125.7304000854492 116.723503112793 122.9183807373047 119.8209381103516 119.8209381103516 C 122.9183807373047 116.723503112793 125.7304000854492 113.3153381347656 128.1788940429688 109.6910858154297 C 130.6503601074219 106.0328598022461 132.77294921875 102.122314453125 134.4877471923828 98.06808471679688 C 138.0553436279297 89.63336181640625 139.8642578125 80.67173767089844 139.8642578125 71.43212890625 C 139.8642578125 62.19252777099609 138.0553436279297 53.23089599609375 134.4877471923828 44.79617309570312 C 132.77294921875 40.741943359375 130.6503601074219 36.83139801025391 128.1788940429688 33.17317199707031 C 125.7304000854492 29.54891967773438 122.9183807373047 26.14075469970703 119.8209381103516 23.04331970214844 C 116.723503112793 19.94587707519531 113.3153381347656 17.13385772705078 109.6910858154297 14.68536376953125 C 106.0328598022461 12.21389770507812 102.122314453125 10.09132385253906 98.06808471679688 8.376510620117188 C 89.63336181640625 4.808914184570312 80.67173767089844 3 71.43212890625 3 M 71.43212890625 0 C 110.8830032348633 0 142.8642578125 31.98125457763672 142.8642578125 71.43212890625 C 142.8642578125 110.8830032348633 110.8830032348633 142.8642578125 71.43212890625 142.8642578125 C 31.98125457763672 142.8642578125 0 110.8830032348633 0 71.43212890625 C 0 31.98125457763672 31.98125457763672 0 71.43212890625 0 Z" stroke="none" fill="#444"/>
        </g>
        <path id="Path_284" data-name="Path 284" d="M12059.084,8949.668s-23.883,9.58-18.715,24.5c5.828,14.723,50.18,8.006,50.18,8.006s18.105-3.465,31.16-9.906a125.334,125.334,0,0,0,22.457-12.656" transform="translate(-12039.637 -8887.28)" fill="none" stroke="#444" stroke-width="3" stroke-dasharray="3 3"/>
        <path id="Path_285" data-name="Path 285" d="M1.607,20.6C1.695,20.947,0,31.847,0,31.847L9.184,40.01l1.5,4.912L7.421,52.395s1.811,9.4,5.467,9.259,13.845-6.911,17.156-19.406S42.41,26.565,42.41,26.565L47.449,20.6s12.681-2.732,13.815-7.485C61.773,13.181,47.5,3.382,48.81,0,48.784.257,19.721-2.527,1.607,20.6Z" transform="matrix(0.999, -0.035, 0.035, 0.999, 37.333, 11.334)" fill="#2c2b7c" stroke="#444" stroke-width="2"/>
        <path id="Path_286" data-name="Path 286" d="M12197.443,9084.158c.141.213-2.59-24.48,9.352-29.65.1-.318,12.957,2.166,16.152-7.062.348.313,8.035-11.742,19.379-4.307.285.338,7.18,5.494,11.555,4.307.363.486,5.637,3.248,6.512,9.047.363.465,12.418,3.676,16.578,4.1C12277.318,9060.631,12245.908,9099.605,12197.443,9084.158Z" transform="translate(-12131.864 -8941.686)" fill="#2c2b7c" stroke="#444" stroke-width="2"/>
        <path id="Path_287" data-name="Path 287" d="M12311.115,8819.385l9.535-5.883,30.219,21.986,15.656-8.895h12.434l-4.879,11.615-15.531,9.418,4.688,37.334-8.355,5.764-12.711-33.064-21.52,12.127,2.07,18.15-8.156,4.74-6.3-22.891-16.949-16.4,7.887-5.76,15.363,10.033,20.016-12.316Z" transform="translate(-12194.639 -8801.304)" fill="#f3d273" stroke="#444" stroke-linecap="round" stroke-width="3"/>
        <g id="Group_369" data-name="Group 369" transform="translate(144.833)">
          <line id="Line_66" data-name="Line 66" y2="20" transform="translate(10.167)" fill="none" stroke="#444" stroke-width="3"/>
          <line id="Line_67" data-name="Line 67" y2="19.75" transform="translate(19.75 9.875) rotate(90)" fill="none" stroke="#444" stroke-width="3"/>
        </g>
        <g id="Group_370" data-name="Group 370" transform="translate(151.417 111.1)">
          <line id="Line_66-2" data-name="Line 66" y2="32.917" transform="translate(16.458)" fill="none" stroke="#444" stroke-width="3"/>
          <line id="Line_67-2" data-name="Line 67" y2="32.917" transform="translate(32.917 16.458) rotate(90)" fill="none" stroke="#444" stroke-width="3"/>
        </g>
        <path id="Path_288" data-name="Path 288" d="M11523.012,8393.928s18.207,17.012,69.086,3.768" transform="translate(-11518.062 -8290.327)" fill="none" stroke="#444" stroke-width="2"/>
      </g>
    </g>
    <rect id="Rectangle_311" data-name="Rectangle 311" width="158" height="158" transform="translate(735 443)" fill="none"/>
  </g>
</svg>
