<svg xmlns="http://www.w3.org/2000/svg" xmlns:xlink="http://www.w3.org/1999/xlink" width="95" height="95" viewBox="0 0 95 95">
  <defs>
    <linearGradient id="linear-gradient" x1="0.5" x2="0.5" y2="1" gradientUnits="objectBoundingBox">
      <stop offset="0" stop-color="#628491"/>
      <stop offset="1" stop-color="#314249"/>
    </linearGradient>
  </defs>
  <g id="Overseas_Mediclaim_Business_and_Holiday" data-name="Overseas Mediclaim Business and Holiday" transform="translate(-799.686 -254.405)">
    <g id="Group_3422" data-name="Group 3422" transform="translate(804.195 256.395)">
      <g id="Group_1579" data-name="Group 1579" transform="translate(13.347 0)">
        <rect id="Rectangle_704" data-name="Rectangle 704" width="44.736" height="63.749" rx="6" transform="translate(2.796 17.048)" stroke="#444" stroke-width="2" fill="url(#linear-gradient)"/>
        <g id="Ellipse_233" data-name="Ellipse 233" transform="translate(7.269 80.797)" fill="#444" stroke="#444" stroke-width="3">
          <circle cx="3.635" cy="3.635" r="3.635" stroke="none"/>
          <circle cx="3.635" cy="3.635" r="2.135" fill="none"/>
        </g>
        <g id="Ellipse_234" data-name="Ellipse 234" transform="translate(34.671 80.797)" fill="#444" stroke="#444" stroke-width="3">
          <circle cx="3.635" cy="3.635" r="3.635" stroke="none"/>
          <circle cx="3.635" cy="3.635" r="2.135" fill="none"/>
        </g>
        <g id="Rectangle_705" data-name="Rectangle 705" transform="translate(0 28.791)" fill="#444" stroke="#444" stroke-width="2">
          <rect width="3.355" height="8.947" rx="1.678" stroke="none"/>
          <rect x="1" y="1" width="1.355" height="6.947" rx="0.678" fill="none"/>
        </g>
        <g id="Rectangle_706" data-name="Rectangle 706" transform="translate(0 60.106)" fill="#444" stroke="#444" stroke-width="2">
          <rect width="3.355" height="8.947" rx="1.678" stroke="none"/>
          <rect x="1" y="1" width="1.355" height="6.947" rx="0.678" fill="none"/>
        </g>
        <g id="Rectangle_707" data-name="Rectangle 707" transform="translate(46.414 43.331)" fill="#444" stroke="#444" stroke-width="2">
          <path d="M0,0H0A3.355,3.355,0,0,1,3.355,3.355v6.71A3.355,3.355,0,0,1,0,13.421H0a0,0,0,0,1,0,0V0A0,0,0,0,1,0,0Z" stroke="none"/>
          <path d="M1.339,1h0A1.016,1.016,0,0,1,2.355,2.016V11.4a1.016,1.016,0,0,1-1.016,1.016h0A.339.339,0,0,1,1,12.082V1.339A.339.339,0,0,1,1.339,1Z" fill="none"/>
        </g>
        <path id="Subtraction_49" data-name="Subtraction 49" d="M6.152,8.948H0V8A8.009,8.009,0,0,1,8,0h7.486a8.009,8.009,0,0,1,8,8v.946H17.895V7.033a2,2,0,0,0-2-2H8.151a2,2,0,0,0-2,2V8.947Z" transform="translate(13.421 0)" fill="#628491" stroke="#444" stroke-width="2"/>
        <line id="Line_170" data-name="Line 170" y2="9.434" transform="translate(16.497 7.893)" fill="none" stroke="#444" stroke-width="2"/>
        <line id="Line_171" data-name="Line 171" y2="9.434" transform="translate(33.832 7.893)" fill="none" stroke="#444" stroke-width="2"/>
        <path id="Path_766" data-name="Path 766" d="M-19930.875-15265.5s1.564,7.625-5.2,7.625" transform="translate(19939.385 15282.829)" fill="none" stroke="#444" stroke-width="1"/>
        <path id="Path_767" data-name="Path 767" d="M-19935.91-15265.5s-1.572,7.625,5.189,7.625" transform="translate(19977.967 15282.829)" fill="none" stroke="#444" stroke-width="1"/>
        <path id="Path_768" data-name="Path 768" d="M-19930.875-15257.95s1.564-7.55-5.2-7.55" transform="translate(19939.385 15338.747)" fill="none" stroke="#444" stroke-width="1"/>
        <path id="Path_769" data-name="Path 769" d="M-19935.91-15258.5s-1.572-7,5.189-7" transform="translate(19977.967 15338.747)" fill="none" stroke="#444" stroke-width="1"/>
        <g id="Group_1578" data-name="Group 1578" transform="translate(11.463 26.284)">
          <line id="Line_172" data-name="Line 172" y2="46.414" transform="translate(0)" fill="none" stroke="#6ec9ce" stroke-linecap="round" stroke-width="2"/>
          <line id="Line_173" data-name="Line 173" y2="46.414" transform="translate(5.592)" fill="none" stroke="#6ec9ce" stroke-linecap="round" stroke-width="2"/>
          <line id="Line_174" data-name="Line 174" y2="46.414" transform="translate(11.184)" fill="none" stroke="#6ec9ce" stroke-linecap="round" stroke-width="2"/>
          <line id="Line_175" data-name="Line 175" y2="46.414" transform="translate(16.776)" fill="none" stroke="#6ec9ce" stroke-linecap="round" stroke-width="2"/>
          <line id="Line_176" data-name="Line 176" y2="46.414" transform="translate(22.368)" fill="none" stroke="#6ec9ce" stroke-linecap="round" stroke-width="2"/>
          <line id="Line_177" data-name="Line 177" y2="46.414" transform="translate(27.96)" fill="none" stroke="#6ec9ce" stroke-linecap="round" stroke-width="2"/>
        </g>
      </g>
      <path id="Path_1765" data-name="Path 1765" d="M12052.033,8946.143s-14.486,7.905-12.044,15.09c2.748,7.093,23.673,3.859,23.673,3.859s8.542-1.671,14.7-4.772a82.206,82.206,0,0,0,13.1-7.926" transform="translate(-12039.712 -8911.705)" fill="none" stroke="#444" stroke-width="2" stroke-dasharray="3 3"/>
      <path id="Path_1766" data-name="Path 1766" d="M12299.479,8815.922l3.931-2.422,12.458,9.064,6.456-3.669h5.122l-2.008,4.786-6.4,3.888,1.93,15.39-3.44,2.376-5.243-13.633-8.871,5,.852,7.481-3.36,1.959-2.6-9.44-6.991-6.763,3.249-2.372,6.338,4.133,8.252-5.075Z" transform="translate(-12242.066 -8800.218)" fill="#f3d273" stroke="#444" stroke-linecap="round" stroke-width="2"/>
    </g>
    <rect id="Rectangle_1297" data-name="Rectangle 1297" width="95" height="95" transform="translate(799.686 254.405)" fill="none"/>
  </g>
</svg>
