<?xml version="1.0" encoding="UTF-8"?>
<svg id="Layer_1" data-name="Layer 1" xmlns="http://www.w3.org/2000/svg" xmlns:xlink="http://www.w3.org/1999/xlink" viewBox="0 0 95 95">
  <defs>
    <style>
      .cls-1 {
        fill: none;
      }

      .cls-2, .cls-3 {
        fill: #444;
      }

      .cls-3 {
        stroke-width: 2px;
      }

      .cls-3, .cls-4, .cls-5, .cls-6, .cls-7, .cls-8, .cls-9, .cls-10, .cls-11, .cls-12 {
        stroke: #444;
      }

      .cls-13 {
        fill: #f8f4ec;
      }

      .cls-4 {
        fill: #fff;
      }

      .cls-5 {
        fill: url(#linear-gradient);
      }

      .cls-6 {
        fill: url(#linear-gradient-2);
      }

      .cls-7 {
        fill: url(#linear-gradient-3);
      }

      .cls-8 {
        fill: url(#linear-gradient-4);
      }

      .cls-9 {
        fill: #f3d273;
      }

      .cls-10 {
        fill: #ef4136;
      }

      .cls-11 {
        fill: #6ec9ce;
      }

      .cls-14 {
        fill: #aaa;
        isolation: isolate;
        opacity: .35;
      }

      .cls-12 {
        fill: #00848b;
      }
    </style>
    <linearGradient id="linear-gradient" x1="82.18" y1="59.02" x2="84.64" y2="69.93" gradientUnits="userSpaceOnUse">
      <stop offset="0" stop-color="#ace0e3"/>
      <stop offset="1" stop-color="#b5b5b5"/>
    </linearGradient>
    <linearGradient id="linear-gradient-2" x1="55.52" y1="65.02" x2="57.97" y2="75.93" xlink:href="#linear-gradient"/>
    <linearGradient id="linear-gradient-3" x1="28.18" y1="71.17" x2="30.64" y2="82.08" xlink:href="#linear-gradient"/>
    <linearGradient id="linear-gradient-4" x1="51.94" y1="43.02" x2="56.31" y2="70.02" xlink:href="#linear-gradient"/>
  </defs>
  <g id="Group_716" data-name="Group 716">
    <g id="Group_715" data-name="Group 715">
      <ellipse id="Ellipse_144" data-name="Ellipse 144" class="cls-14" cx="47.51" cy="81.53" rx="44.24" ry="5.25"/>
    </g>
    <rect id="Rectangle_308" data-name="Rectangle 308" class="cls-1" x="8.12" y="8" width="78.78" height="78.78"/>
  </g>
  <g>
    <path class="cls-3" d="M71,71.02c1.41,6.7,11.17,4.94,10.17-1.82-1.39-6.65-11.16-4.96-10.17,1.82Z"/>
    <path class="cls-3" d="M33.39,77.75c1.41,6.69,11.17,4.95,10.17-1.82-1.41-6.68-11.16-4.93-10.17,1.82Z"/>
    <path class="cls-13" d="M73.83,70.52c.61,2.97,4.97,2.18,4.51-.81-.6-2.95-4.97-2.19-4.51.81Z"/>
    <path class="cls-13" d="M36.21,77.24c.61,2.97,4.97,2.18,4.51-.81-.6-2.95-4.97-2.19-4.51.81Z"/>
    <path class="cls-5" d="M78.59,65.6c1.04.58,1.88,1.51,2.32,2.66l.65-.18,5.6-3.19.75-2.99-9.32,3.7Z"/>
    <path class="cls-6" d="M41.98,73.06c.81.75,1.39,1.76,1.58,2.93l26.91-4.81.53-.15c-.21-1.15-.01-2.28.48-3.25l-29.51,5.27Z"/>
    <path class="cls-7" d="M24.44,76.19l.26,1.46c.16.91,1.04,1.52,1.95,1.36l6.75-1.21c-.22-1.16-.03-2.31.48-3.3l-9.43,1.69Z"/>
    <path class="cls-8" d="M24.05,74.03l.39,2.16,9.43-1.69c1.32-2.98,5.84-3.78,8.11-1.45l29.51-5.27c1.14-2.53,4.71-3.62,7.1-2.19l9.32-3.7-1.43-8c-.25-1.19-1.31-2.06-2.54-2.06-1.79.01-3.59.01-5.38.02-3.95-1.67-7.88-3.35-11.82-5.01-.67-.28-1.4-.37-2.11-.24l-12.67,2.26c-.74.13-1.41.49-1.95,1.01l-10.5,10.31-10.33,4.27c-3.68,1.46-5.95,5.64-5.12,9.56Z"/>
    <path class="cls-4" d="M56.59,57.62l-1.2-6.71c-.85.21-3.3.41-3.57.84,0,0-8.35,8.21-8.35,8.21l13.12-2.34Z"/>
    <path class="cls-4" d="M73.26,53.98c-.16-.62-.14-1.66-.54-1.75,0,0-7.02-2.97-7.02-2.97-.2-.08-.42-.12-.63-.08l-9.7,1.73,1.2,6.71,16.16-2.89c.35-.06.58-.4.52-.76Z"/>
    <path class="cls-2" d="M56.17,57.73c-.34,0-.63-.21-.7-.52l-1.17-5.83c-.16-.81,1.23-1.04,1.39-.22,0,0,1.17,5.83,1.17,5.83.08.38-.26.75-.7.74Z"/>
    <path class="cls-2" d="M66.87,56.18c-.34,0-.63-.21-.7-.52l-1.17-5.83c-.16-.81,1.23-1.04,1.39-.22,0,0,1.17,5.83,1.17,5.83.08.38-.26.75-.7.74Z"/>
    <path class="cls-10" d="M83.4,55.42l.36,2.02c.09.52.59.86,1.1.77l2.31-.41-.7-3.89-2.31.41c-.52.09-.86.59-.77,1.1Z"/>
    <path class="cls-9" d="M24.13,70.34c.21.14.48.2.76.15l3.24-.58c1.36-.24,2.28-1.55,2.03-2.92-.04-.72-.5-1.37-1.28-1.23,0,0-2.33.42-2.33.42-1.16,1.1-2.01,2.52-2.42,4.16Z"/>
    <path class="cls-9" d="M53.26,23.51l-.54,1.13c-.46.98-1.44,1.59-2.52,1.59h-4.16c-1.07,0-2.04-.6-2.5-1.56l-.58-1.17h10.29Z"/>
    <path class="cls-12" d="M53.9,22.17l-.64,1.35h-10.29l-3.44-.78-1.04-1.94h14.53c.71,0,1.18.74.88,1.38Z"/>
    <path class="cls-11" d="M15.68,63.13l-5.29,5.96,8.43,6.51c.48.37.73.93.74,1.49v4.92h-3.77v-4l-9.3-7.17c-.82-.64-.97-1.82-.34-2.65.07-.1,5.3-5.98,6.47-7.31l11.86-32.65c.11-.37.39-.67.72-.84l13.3-6.61,1.04,1.94-12.38,7.04-11.11,32.72c-.08.25-.21.45-.37.63Z"/>
    <path class="cls-2" d="M22.76,58.93c-.44,0-.79-.41-.69-.84l1.13-5.71c.19-.9,1.56-.63,1.39.27,0,0-1.13,5.71-1.13,5.71-.07.34-.36.57-.69.57Z"/>
    <path class="cls-2" d="M24.89,62.08c-.58.02-.94-.74-.53-1.17,0,0,3.26-3.75,3.26-3.75.61-.69,1.67.23,1.07.93,0,0-3.26,3.75-3.26,3.75-.14.16-.34.24-.53.24Z"/>
  </g>
</svg>