<svg xmlns="http://www.w3.org/2000/svg" xmlns:xlink="http://www.w3.org/1999/xlink" width="108" height="108.006" viewBox="0 0 108 108.006">
  <defs>
    <linearGradient id="linear-gradient" x1="0.5" x2="0.5" y2="1" gradientUnits="objectBoundingBox">
      <stop offset="0" stop-color="#3bc5cc"/>
      <stop offset="1" stop-color="#b5b5b5"/>
    </linearGradient>
  </defs>
  <g id="Group_5045" data-name="Group 5045" transform="translate(-1238 -980.996)">
    <path id="Path_2008" data-name="Path 2008" d="M54,0c29.823,0,54,3.358,54,7.5S83.823,15,54,15,0,11.642,0,7.5,24.177,0,54,0Z" transform="translate(1238 1074.002)" fill="#aaa" opacity="0.35"/>
    <g id="Group_3442" data-name="Group 3442" transform="translate(1262 980.996)">
      <g id="Ellipse_548" data-name="Ellipse 548" transform="translate(11.207 13.296)" fill="#fff" stroke="#444" stroke-width="1">
        <ellipse cx="18.972" cy="19.196" rx="18.972" ry="19.196" stroke="none"/>
        <ellipse cx="18.972" cy="19.196" rx="18.472" ry="18.696" fill="none"/>
      </g>
      <g id="Path_1782" data-name="Path 1782" fill="url(#linear-gradient)">
        <path d="M 30.01810455322266 96.23363494873047 C 29.11979293823242 94.71504974365234 27.70845222473145 92.25142669677734 25.84441757202148 88.86403656005859 C 23.38176155090332 84.3887939453125 19.617431640625 77.36708831787109 15.66934680938721 69.33010101318359 C 11.52247524261475 60.88847732543945 8.21466064453125 53.44246292114258 5.837775230407715 47.19891738891602 C 2.959446668624878 39.63813400268555 1.500003814697266 33.98873519897461 1.500003814697266 30.40761947631836 C 1.500003814697266 26.50196266174316 2.254275321960449 22.7141056060791 3.741860866546631 19.14926147460938 C 5.178475379943848 15.70659065246582 7.235089302062988 12.61476230621338 9.854589462280273 9.959675788879395 C 12.47271823883057 7.305976390838623 15.52063274383545 5.222876071929932 18.91368865966797 3.768233299255371 C 22.42441749572754 2.263147592544556 26.15439033508301 1.500004768371582 30.00000381469727 1.500004768371582 C 33.84561920166016 1.500004768371582 37.57558822631836 2.263147592544556 41.08631896972656 3.768233299255371 C 44.47937393188477 5.222876071929932 47.52729034423828 7.305976390838623 50.14541625976562 9.959675788879395 C 52.76491928100586 12.61476230621338 54.821533203125 15.70659065246582 56.25814819335938 19.14926147460938 C 57.74573135375977 22.7141056060791 58.50000381469727 26.50196266174316 58.50000381469727 30.40761947631836 C 58.50000381469727 33.97837448120117 57.05009078979492 39.61296081542969 54.19053268432617 47.15486145019531 C 51.82240295410156 53.4006462097168 48.53139114379883 60.83556365966797 44.40890502929688 69.25305938720703 C 38.42770385742188 81.46575164794922 32.46684265136719 92.12599945068359 30.01810455322266 96.23363494873047 Z" stroke="none"/>
        <path d="M 30.00000381469727 2.999992370605469 C 26.35874176025391 2.999992370605469 22.82761764526367 3.722305297851562 19.50472640991211 5.146873474121094 C 16.29098892211914 6.524642944335938 13.40348052978516 8.498336791992188 10.92238998413086 11.01313781738281 C 8.438526153564453 13.53074645996094 6.488388061523438 16.46248626708984 5.126155853271484 19.72693634033203 C 3.715343475341797 23.10779571533203 3.000003814697266 26.70130157470703 3.000003814697266 30.40762329101562 C 3.000003814697266 36.64492034912109 7.925636291503906 50.12722778320312 16.86952590942383 68.37094879150391 C 21.89812850952148 78.62826538085938 27.08951568603516 88.12545013427734 30.02024269104004 93.25425720214844 C 32.93630599975586 88.17474365234375 38.12165832519531 78.70321655273438 43.22011184692383 68.26968383789062 C 52.10620498657227 50.0850715637207 57.00000381469727 36.63873291015625 57.00000381469727 30.40762329101562 C 57.00000381469727 26.70130157470703 56.28466415405273 23.10779571533203 54.87383270263672 19.72693634033203 C 53.51160430908203 16.46248626708984 51.56148147583008 13.53074645996094 49.07762145996094 11.01313781738281 C 46.59652709960938 8.498336791992188 43.70900344848633 6.524642944335938 40.49526596069336 5.146873474121094 C 37.17237091064453 3.722305297851562 33.64126586914062 2.999992370605469 30.00000381469727 2.999992370605469 M 30.00000381469727 -7.62939453125e-06 C 46.56854248046875 -7.62939453125e-06 60.00000381469727 13.61395263671875 60.00000381469727 30.40762329101562 C 60.00000381469727 47.18283843994141 30.59755516052246 99.00002288818359 30.0018138885498 99.00002288818359 C 30.00115776062012 99.00002288818359 30.00058937072754 98.99996185302734 30.00000381469727 98.99983978271484 C 29.46711158752441 98.88865661621094 3.814697265625e-06 47.20129013061523 3.814697265625e-06 30.40762329101562 C 3.814697265625e-06 13.61395263671875 13.43144989013672 -7.62939453125e-06 30.00000381469727 -7.62939453125e-06 Z" stroke="none" fill="#444"/>
      </g>
    </g>
    <path id="india-map-country-svgrepo-com" d="M45.216,13.5l-2.272.278-3.82,3,.256,1.345-3.391.547-1.4-.632L34.333,16.6l-1.374.033.325,2.484-3.49.081L25.04,17.75l-4.1-2.217L22.1,13.278,19.152,11.3l-.242-1.907.794.476.853-.529-.979-1.8,1.832-1.649L21.8,4.555l-1.458-.5-2.687.466L14.872,2l-3.066.211-.979,1.231,2.2,1.621-.546.555-.545.116-.035,2.535,1.943,1.169L8.4,16.725l-2.311-.218L4.631,18.464,6.89,22.159l-1.739.795-1.93-.325-.932.85L3.867,25.1l-.152,1.435,2.7,2.281.056-.043,2.589-.769.33,1.35.052,4,3.495,10.234.85,1.61,1.153,3.759L15.861,50l1.639-.124.312-1,2.753-3.105v-.286l-.056-1.435.065-.2.763-2.5-.078-.047.03-.073.048.119-.03-.145-.39-2.49L21.26,37.6l6.175-4.421,1.1-1.435.681-1.059,1.873-.474L32.7,27.421l1.032-.624,1.513.4L33.925,21.39l-.061-2.157,1.869.354.3,1.243.889.44,3.152.043-.312.8.273,1.393.681,2.529,1.136-1.7-.23-1.508,1.1.115.8-2.644.746-2.1,2.2-1.371.811-1.188Z" transform="translate(1270.961 992.496)" fill="#fff" stroke="#444" stroke-width="1.3"/>
    <g id="Group_3440" data-name="Group 3440" transform="translate(1242.5 1038.633) rotate(-17)">
      <g id="Path_1785" data-name="Path 1785" transform="translate(28.728 0)" fill="#f4d274">
        <path d="M 11.33852863311768 10.14118194580078 L 3.416228771209717 1.505081534385681 L 10.3217134475708 1.51533830165863 L 24.42609786987305 9.199334144592285 L 11.33852863311768 10.14118194580078 Z" stroke="none"/>
        <path d="M 6.832437515258789 3.010159492492676 L 11.95385932922363 8.593021392822266 L 19.21817398071289 8.070243835449219 L 9.93858528137207 3.014772415161133 L 6.832437515258789 3.010159492492676 M 0 3.814697265625e-06 L 10.70484161376953 0.01590442657470703 L 29.6340217590332 10.32842445373535 L 10.72318077087402 11.68934440612793 L 0 3.814697265625e-06 Z" stroke="none" fill="#444"/>
      </g>
      <g id="Union_66" data-name="Union 66" transform="translate(1.98 2.802)" fill="#f4d274">
        <path d="M 77.80731201171875 16.66252136230469 L 77.70738220214844 16.66244125366211 L 11.69152736663818 16.56512069702148 C 9.857407569885254 16.56241416931152 8.400927543640137 15.43130779266357 7.502074241638184 14.48290824890137 C 6.379835605621338 13.29882717132568 5.784198760986328 12.05803489685059 5.686341285705566 11.7463321685791 C 5.67689037322998 11.66072845458984 5.662781238555908 11.57139873504639 5.643647193908691 11.47590827941895 L 5.622553825378418 11.37064170837402 L 5.586674213409424 11.26944160461426 L 2.124366521835327 1.503135681152344 L 7.572240352630615 1.511165142059326 L 16.39316749572754 9.157975196838379 L 16.90068817138672 9.59794807434082 L 17.56687355041504 9.512348175048828 L 77.76236724853516 1.777907967567444 C 79.63028717041016 1.831816554069519 82.95219421386719 3.491888999938965 85.89569091796875 5.850241661071777 C 89.00579071044922 8.342081069946289 91.01715087890625 11.0638952255249 91.01987457275391 12.78437519073486 C 91.02067565917969 13.2889347076416 90.83399200439453 13.71129512786865 90.43236541748047 14.11356163024902 C 88.81503295898438 15.73345470428467 84.21337890625 16.66252136230469 77.80731201171875 16.66252136230469 Z" stroke="none"/>
        <path d="M 77.80736541748047 15.16251277923584 C 80.40271759033203 15.16251277923584 82.68594360351562 15.01005554199219 84.59360504150391 14.70938396453857 C 88.03390502929688 14.16715526580811 89.11993408203125 13.30505561828613 89.370849609375 13.05375576019287 C 89.52005004882812 12.90431308746338 89.51997375488281 12.85242748260498 89.51985931396484 12.78674125671387 C 89.51857757568359 11.96965599060059 88.27887725830078 9.681741714477539 84.95778656005859 7.020855903625488 C 82.14381408691406 4.766269683837891 79.18643951416016 3.383554935455322 77.82258605957031 3.282511711120605 L 16.4256477355957 11.17131328582764 L 7.011622428894043 3.010338306427002 L 4.248717784881592 3.006266593933105 L 7.072332859039307 10.97098445892334 L 7.114547252655029 11.18189907073975 C 7.12738561630249 11.24602794647217 7.138718605041504 11.30872440338135 7.148593902587891 11.37026786804199 C 7.312485694885254 11.74801063537598 7.854111671447754 12.71045589447021 8.711147308349609 13.57526969909668 C 9.689390182495117 14.56238460540771 10.69287586212158 15.06365585327148 11.69374752044678 15.0651273727417 L 77.80736541748047 15.16251277923584 M 77.80736541748047 18.16251754760742 C 77.7728271484375 18.16251754760742 77.73912811279297 18.16249084472656 77.70517730712891 18.16244125366211 L 11.68931865692139 18.06512641906738 C 7.054747581481934 18.05828475952148 4.262632846832275 12.78174114227295 4.198732852935791 11.94672679901123 C 4.194390296936035 11.88932704925537 4.184875965118408 11.83054161071777 4.172890186309814 11.77065563201904 L 4.493931555771269e-06 -1.400538849338773e-06 L 8.132847785949707 0.01198431383818388 L 17.37570381164551 8.024584770202637 L 77.67684936523438 0.2765700221061707 C 82.31195831298828 0.2833985984325409 92.51206207275391 7.842755794525146 92.51985931396484 12.78199863433838 C 92.52763366699219 17.68505096435547 82.48842620849609 18.16251754760742 77.80736541748047 18.16251754760742 Z" stroke="none" fill="#444"/>
      </g>
      <g id="Path_1786" data-name="Path 1786" transform="translate(26.686 16.337)" fill="#f4d274">
        <path d="M 12.21120834350586 15.16238880157471 L 3.673768520355225 15.1497049331665 L 17.63110733032227 1.500911235809326 L 36.16379547119141 1.52845311164856 L 12.21120834350586 15.16238880157471 Z" stroke="none"/>
        <path d="M 18.24170112609863 3.001821517944336 L 7.3475341796875 13.65515995025635 L 11.81525230407715 13.66179752349854 L 30.51104354858398 3.020055770874023 L 18.24170112609863 3.001821517944336 M 17.0205135345459 0 L 41.81654357910156 0.0368499755859375 L 12.60716438293457 16.6629810333252 L 3.814697265625e-06 16.64425086975098 L 17.0205135345459 0 Z" stroke="none" fill="#444"/>
      </g>
      <line id="Line_337" data-name="Line 337" x2="14.806" transform="translate(0 13.879)" fill="none" stroke="#444" stroke-width="3"/>
      <path id="Path_1787" data-name="Path 1787" d="M6.112,0S6.634,3.436,0,4.13" transform="translate(80.074 7.149)" fill="none" stroke="#444" stroke-linecap="round" stroke-width="3"/>
    </g>
    <rect id="Rectangle_1309" data-name="Rectangle 1309" width="103.749" height="103.749" transform="translate(1239.485 981.096)" fill="none"/>
  </g>
</svg>
