<svg xmlns="http://www.w3.org/2000/svg" xmlns:xlink="http://www.w3.org/1999/xlink" width="118" height="118" viewBox="0 0 118 118">
  <defs>
    <linearGradient id="linear-gradient" x1="0.5" x2="0.5" y2="0.921" gradientUnits="objectBoundingBox">
      <stop offset="0" stop-color="#f3d273"/>
      <stop offset="1" stop-color="#be8d00"/>
    </linearGradient>
    <linearGradient id="linear-gradient-2" x1="0.5" y1="0.41" x2="0.5" y2="0.865" gradientUnits="objectBoundingBox">
      <stop offset="0" stop-color="#748181"/>
      <stop offset="1" stop-color="#4e5757"/>
    </linearGradient>
  </defs>
  <g id="National_Young_Women_Advantage_ico" data-name="National Young Women Advantage_ico" transform="translate(17790.988 18449.988)">
    <g id="Group_4061" data-name="Group 4061" transform="translate(-17790 -18450)">
      <g id="Group_4059" data-name="Group 4059" transform="translate(50.486)">
        <g id="Ellipse_833" data-name="Ellipse 833" transform="translate(-0.475 0.012)" fill="none" stroke="#444" stroke-width="3">
          <circle cx="33" cy="33" r="33" stroke="none"/>
          <circle cx="33" cy="33" r="31.5" fill="none"/>
        </g>
        <path id="Path_2269" data-name="Path 2269" d="M0,.877V46.015" transform="translate(31.845 62.512)" fill="none" stroke="#444" stroke-linecap="round" stroke-width="3"/>
        <line id="Line_388" data-name="Line 388" x2="38" transform="translate(12.525 90.012)" fill="none" stroke="#00848b" stroke-linecap="round" stroke-width="3"/>
      </g>
      <g id="Group_4060" data-name="Group 4060" transform="translate(9.356 20.283)">
        <g id="Rectangle_1541" data-name="Rectangle 1541" transform="translate(8.691 31.203)" fill="#4e5757" stroke="#444" stroke-width="1">
          <rect width="47.798" height="41.159" stroke="none"/>
          <rect x="0.5" y="0.5" width="46.798" height="40.159" fill="none"/>
        </g>
        <g id="Rectangle_1542" data-name="Rectangle 1542" transform="translate(10.021 63.067)" fill="#3bc5cc" stroke="#444" stroke-width="1">
          <path d="M12,0H33.142a12,12,0,0,1,12,12V26.554a0,0,0,0,1,0,0H0a0,0,0,0,1,0,0V12A12,12,0,0,1,12,0Z" stroke="none"/>
          <path d="M12,.5H33.142A11.5,11.5,0,0,1,44.642,12V25.554a.5.5,0,0,1-.5.5H1a.5.5,0,0,1-.5-.5V12A11.5,11.5,0,0,1,12,.5Z" fill="none"/>
        </g>
        <path id="Path_2264" data-name="Path 2264" d="M-17732.207-18388.074v16.012s-3.9,3.723,1.412,8.313,13.287,1.41,13.287,1.41,8.813-4.342,3.512-9.723c.129-.041,0-16.012,0-16.012Z" transform="translate(17756.102 18443.076)" stroke="#444" stroke-width="1" fill="url(#linear-gradient)"/>
        <path id="Union_92" data-name="Union 92" d="M45.09,89.816a12.893,12.893,0,0,1,1.369-14.262c5.649-7.093,4.558-24.9,4.558-24.9l-.793-8.063a25.23,25.23,0,0,1-33.7,2.616c-.872,9.655-2.5,18.1-1.1,21.568,3.02,7.491,5.652,23.039,5.652,23.039H8.731S-4.2,81.428,1.41,62.452C5.174,49.719,6.472,36.133,6.919,28.573a25.231,25.231,0,0,1,49.612-8.94c1,3.709,2.188,10.923,3.137,24.944,2.022,29.848,1.169,45.239,1.169,45.239Z" stroke="#444" stroke-width="2" fill="url(#linear-gradient-2)"/>
        <g id="Rectangle_1540" data-name="Rectangle 1540" transform="translate(15.327 7.302)" fill="#f3d273" stroke="#444" stroke-width="1">
          <rect width="35.848" height="53.109" rx="17.924" stroke="none"/>
          <rect x="0.5" y="0.5" width="34.848" height="52.109" rx="17.424" fill="none"/>
        </g>
        <path id="Path_2265" data-name="Path 2265" d="M-17723.727-18402.215v3.33a2.981,2.981,0,0,1-2.656,3.65" transform="translate(17758.467 18438.441)" fill="none" stroke="#444" stroke-linecap="round" stroke-width="1"/>
        <path id="Path_2266" data-name="Path 2266" d="M-17729.025-18393.191a6.505,6.505,0,0,0,9,0" transform="translate(17757.596 18441.396)" fill="none" stroke="#444" stroke-linecap="round" stroke-width="1"/>
        <circle id="Ellipse_835" data-name="Ellipse 835" cx="2.655" cy="2.655" r="2.655" transform="translate(21.968 29.873)" fill="#444"/>
        <circle id="Ellipse_836" data-name="Ellipse 836" cx="2.655" cy="2.655" r="2.655" transform="translate(37.898 29.873)" fill="#444"/>
        <g id="Ellipse_837" data-name="Ellipse 837" transform="translate(44.539 31.203)" fill="#fff" stroke="#707070" stroke-width="1">
          <circle cx="1.328" cy="1.328" r="1.328" stroke="none"/>
          <circle cx="1.328" cy="1.328" r="0.828" fill="none"/>
        </g>
        <circle id="Ellipse_838" data-name="Ellipse 838" cx="1.328" cy="1.328" r="1.328" transform="translate(44.539 31.203)" fill="#444"/>
        <circle id="Ellipse_839" data-name="Ellipse 839" cx="1.328" cy="1.328" r="1.328" transform="translate(17.984 31.203)" fill="#444"/>
        <line id="Line_389" data-name="Line 389" x2="7.966" transform="translate(19.976 26.554)" fill="none" stroke="#444" stroke-linecap="round" stroke-width="1"/>
        <line id="Line_390" data-name="Line 390" x2="7.966" transform="translate(38.563 26.554)" fill="none" stroke="#444" stroke-linecap="round" stroke-width="1"/>
        <path id="Path_2267" data-name="Path 2267" d="M-17739.02-18406.1l27.77-9.441,8.023,9.441,1.07-9.441-16.5-10.768-10.791,2.295-9.576,5.838Z" transform="translate(17754.32 18429.223)" fill="#748181"/>
        <path id="Path_2268" data-name="Path 2268" d="M-17740.641-18407.9s25.814-7.975,29.883-10.674c-.008-.062,6.549,8.609,9.264,11.121" transform="translate(17753.656 18431.752)" fill="none" stroke="#444" stroke-width="2"/>
      </g>
      <g id="Group_4063" data-name="Group 4063" transform="translate(88.012 92.012)">
        <line id="Line_391" data-name="Line 391" x2="20" transform="translate(0 10)" fill="none" stroke="#3bc5cc" stroke-linecap="round" stroke-width="4"/>
        <line id="Line_392" data-name="Line 392" x2="20" transform="translate(10) rotate(90)" fill="none" stroke="#3bc5cc" stroke-linecap="round" stroke-width="4"/>
      </g>
      <g id="Group_4064" data-name="Group 4064" transform="translate(93.453 44.254)">
        <line id="Line_391-2" data-name="Line 391" x2="20" transform="translate(-0.441 9.758)" fill="none" stroke="#3bc5cc" stroke-linecap="round" stroke-width="3"/>
        <line id="Line_392-2" data-name="Line 392" x2="18.712" transform="translate(9.461 0) rotate(90)" fill="none" stroke="#3bc5cc" stroke-linecap="round" stroke-width="3"/>
      </g>
      <g id="Group_4065" data-name="Group 4065" transform="translate(5.37 16.595)">
        <line id="Line_391-3" data-name="Line 391" x2="12" transform="translate(-0.357 6.416)" fill="none" stroke="#00848b" stroke-linecap="round" stroke-width="2"/>
        <line id="Line_392-3" data-name="Line 392" x2="11.227" transform="translate(5.857 0) rotate(90)" fill="none" stroke="#00848b" stroke-linecap="round" stroke-width="2"/>
      </g>
    </g>
    <rect id="Rectangle_1543" data-name="Rectangle 1543" width="118" height="118" transform="translate(-17790.988 -18449.988)" fill="none"/>
  </g>
</svg>
