<svg width="40" height="40" viewBox="0 0 40 40" fill="none" xmlns="http://www.w3.org/2000/svg">
<path d="M32 28.5L25 32.5L27.5 34.5L35 36.5L39 34L32 28.5Z" fill="#191547"/>
<path d="M13.7966 19.7276L13.7791 22.2622C13.7689 23.6104 12.9565 25.1421 11.9627 25.684L6.88733 28.4492L3.62429 26.4002L3.59766 26.2629L3.65605 26.2239L13.1296 20.3146L13.7966 19.7266V19.7276Z" fill="#3A3B3D"/>
<path d="M11.5757 9.92891L13.1298 20.4905L3.69522 26.2799L3.63785 26.3148L3.62863 26.2697L3.6235 26.2676L2.12978 15.1784C1.95767 13.9029 2.37464 12.3252 3.29566 11.814L8.98574 8.46694C9.59736 8.12681 10.8042 8.36244 11.1884 8.87879V8.88084C11.382 9.14414 11.5173 9.49862 11.5757 9.92788V9.92891Z" fill="#3A3B3D"/>
<path d="M11.1885 8.82559C10.8043 8.30822 10.2111 8.14942 9.59843 8.48956L3.48728 11.8878C2.56626 12.4001 1.95771 13.8497 2.12982 15.1252L3.63789 26.2605L1.49975 25.2053L0.0285715 14.2862C-0.141496 13.0097 0.465009 11.562 1.38603 11.0477L7.49718 7.64947C8.20408 7.25811 10.6783 7.85846 11.1885 8.82559Z" fill="#5E5F61"/>
<path d="M4.82138 27.1506C4.81319 28.3502 4.25176 29.6678 5.09287 29.4116C4.90027 29.5182 4.64722 29.5387 4.36958 29.4915L2.14846 28.0992C1.84316 27.7212 1.64543 27.3124 1.64748 26.9282L1.50098 25.2061L3.59813 26.1209L3.63091 26.2654L3.63808 26.2613V26.2644V26.3853L4.82138 27.1506Z" fill="#5E5F61"/>
<path d="M16.1726 36.6751L5.57369 30.5439L2.13284 28.5518L2.10156 29.9404V29.9455L3.70915 30.8752L6.23887 32.3375L12.8772 36.1798L14.4256 37.0766L16.1397 38.068L16.1785 38.0443V36.6717L16.1726 36.6751Z" fill="#BCBFD3"/>
<path d="M39.8378 23.0625L32.5648 27.2463L16.1787 36.6704V38.043L33.159 28.2791L34.4733 27.5201L39.8049 24.4554L39.8378 23.0625Z" fill="#9195B1"/>
<path d="M16.1726 36.7081L16.1785 36.7047L32.5646 27.2798L39.8377 23.0968L25.9585 15.0859L2.13281 28.5848L5.57367 30.577L16.1726 36.7081Z" fill="#D2D4E2"/>
<path d="M19 22L11.5 26.5L20 31.5L27.5 27L19 22Z" fill="#FDFFFF"/>
<path d="M14.7415 2.04298C15.1462 1.76022 15.1462 1.35042 15.1462 0.80436C15.1462 0.80436 14.9331 1.14859 14.3583 1.01131C14.5181 0.903737 14.6134 0.753135 14.6134 0.753135C14.387 0.79514 14.0059 0.693714 13.675 0.581019C13.3932 0.399683 13.0736 0.258302 12.7335 0.161999C12.7335 0.161999 12.7324 0.161999 12.7314 0.160974C11.543 -0.176086 10.1097 0.00934812 9.19278 0.781821L9.18254 0.769527C8.31274 1.50102 7.66423 2.67407 8.10476 3.57358C8.64263 4.67595 9.95604 6.85506 10.0093 7.04664C10.1568 7.15319 10.247 7.12348 10.371 7.20441H10.4007C10.3884 7.06406 10.3781 6.92165 10.3689 6.78437C10.0073 6.73109 9.86588 5.94428 9.7245 5.59697C9.54419 5.15336 10.082 5.0253 10.2675 5.17898C10.3228 5.37261 10.3894 5.71991 10.4611 6.05083C10.6343 6.17786 10.8207 6.29363 11.0082 6.4053C10.9539 6.1584 10.9334 5.95657 10.9334 5.7865C10.9334 5.36339 11.0574 5.12263 11.0963 4.8327C11.1516 4.46592 11.2305 4.19648 11.2141 3.8584C11.2141 3.8584 12.9937 4.2057 14.4792 2.39438C14.6667 2.95069 14.7497 3.43733 14.7497 3.43733C14.6196 3.9424 14.7087 3.9506 14.8531 4.55506C14.8562 4.57555 14.8593 4.59501 14.8644 4.6114C15.0273 3.63608 14.7917 2.37389 14.7917 2.37389C14.7835 2.26018 14.764 2.15055 14.7405 2.04401L14.7415 2.04298Z" fill="#262628"/>
<path d="M21.7871 14.0615C21.788 14.0661 21.788 14.0708 21.7908 14.0745H21.7871V14.0615Z" fill="#76829B"/>
<path d="M17.4336 6.95605C18.0329 7.59534 20.8216 13.6901 20.8216 13.6901C21.0487 14.0046 22.0039 15.8092 22.6475 16.9571L19.7508 18.6097C19.0433 17.3562 18.1335 14.6575 17.4807 13.434C17.4838 13.4073 17.4869 13.3786 17.492 13.353C18.2143 11.4137 18.078 8.90158 17.4336 6.95605Z" fill="#50BEE7"/>
<path d="M21.4173 24.3421C21.4224 24.3697 21.4296 24.3964 21.4347 24.421C21.4102 24.381 21.3794 24.3298 21.3477 24.2734C21.3702 24.296 21.3948 24.3206 21.4163 24.3421H21.4173Z" fill="#FAB685"/>
<path d="M19.9626 23.4014C19.938 23.4014 19.9134 23.4044 19.8857 23.4065C19.9114 23.4034 19.938 23.4014 19.9626 23.4014Z" fill="#838E93"/>
<path d="M17.7725 13.6495C17.7674 13.6761 17.7643 13.7038 17.7623 13.7294C17.7572 13.7232 17.7551 13.715 17.75 13.7079C17.7572 13.6874 17.7654 13.6679 17.7725 13.6484V13.6495Z" fill="#171043"/>
<path d="M16.5732 9.48655C16.4728 9.48655 15.9062 9.04908 15.8714 8.94356C15.8191 8.80525 15.9164 8.85238 15.9513 8.74583C16.0035 8.57269 16.022 8.48151 15.8826 8.30735C15.8478 8.27354 15.6911 8.1547 15.5415 8.06044C15.2761 7.89345 14.769 7.85554 14.4637 7.77051C14.2639 7.89447 14.0232 7.99897 13.8306 8.06044C14.1605 8.12908 14.4688 8.42311 14.7086 8.77144C14.7311 8.80116 14.7516 8.83087 14.7711 8.86058C14.7926 8.88004 14.8161 8.90053 14.8182 8.93434C14.9923 9.2171 15.1204 9.51933 15.1901 9.76214C15.4698 10.6709 15.6081 11.5806 15.6788 12.5242C15.6839 12.5969 15.6911 12.6707 15.6931 12.7445C15.7433 13.5487 15.7064 14.3806 15.6091 15.1776C15.5876 15.4194 15.5312 15.6704 15.4534 15.9184C15.3284 16.3384 15.0559 16.9039 14.8971 17.3148C14.8776 17.365 14.8786 17.4274 14.8622 17.4725C15.1419 17.115 15.6286 16.4829 15.8396 15.8938C16.1121 15.1254 16.3621 14.2085 16.4543 13.728C16.6479 12.6973 16.6899 12.0488 16.8641 10.7385C16.9307 10.2385 16.6387 9.48552 16.5762 9.48552L16.5732 9.48655Z" fill="#3091B6"/>
<path d="M21.5585 25.482C21.5114 25.4348 21.4643 25.3887 21.4171 25.3406C21.4223 25.3683 21.4294 25.3949 21.4346 25.4195C21.41 25.3795 21.3792 25.3283 21.3475 25.2719C21.2471 25.0886 21.1241 24.8437 21.0299 24.7249C20.9582 24.6429 20.8711 24.5661 20.7994 24.4841V24.4114C20.6611 24.2577 20.5227 24.1061 20.3752 23.9596C20.1949 23.7793 20.0064 23.6051 19.7984 23.4463C19.0618 23.477 18.4973 23.7547 17.859 23.9862C17.7515 24.0262 17.6429 24.063 17.5312 24.0979C17.5189 24.0661 17.5097 24.0333 17.4943 24.0016C17.1101 24.2218 16.7536 24.9154 16.6122 25.5455C16.5426 25.8426 16.5231 26.1274 16.5702 26.3374C16.8827 26.4368 17.1962 26.4214 17.5097 26.3692C17.521 26.3692 17.5312 26.3671 17.5435 26.3641C17.9963 26.2831 18.4512 26.1161 18.9081 26.0741C19.027 26.1336 19.1561 26.193 19.2841 26.2585C19.404 26.3169 19.5187 26.3794 19.6366 26.4481C19.7892 26.5403 19.9357 26.6468 20.0607 26.7728C20.2656 26.8712 20.4223 26.8866 20.5904 26.8353C20.6652 26.8128 20.744 26.778 20.828 26.7308C20.784 26.6776 20.7635 26.6366 20.7635 26.6366C20.7635 26.6294 20.7666 26.6069 20.7666 26.572C20.6774 26.5034 20.5904 26.4235 20.5043 26.3426C20.3158 26.1633 20.1283 25.9686 19.9255 25.8047C20.0095 25.8139 20.1232 25.8426 20.2461 25.8764C20.2543 25.8785 20.2584 25.8815 20.2656 25.8846C20.4326 25.9563 20.6098 25.9809 20.7656 26.0731C21.0903 26.2596 21.2758 26.3036 21.495 25.9635L21.5001 25.9512C21.5175 25.9563 21.5309 25.9614 21.5493 25.9614C21.6261 25.9532 21.6958 25.9635 21.7552 25.9297L21.83 25.7145C21.7388 25.6326 21.6395 25.5557 21.5575 25.484L21.5585 25.482Z" fill="#F7CFAD"/>
<path d="M17.7035 23.9018C17.6194 23.8752 17.5272 23.8496 17.433 23.828C17.2578 23.7809 17.0713 23.7389 16.9228 23.6836C16.2466 24.1426 15.8594 25.2623 15.9475 26.0994C15.9577 26.1854 15.972 26.2674 15.9905 26.3473C16.1995 26.4395 16.4351 26.5286 16.6718 26.5727C16.6226 26.5133 16.5898 26.4344 16.5704 26.3401C16.5232 26.1291 16.5427 25.8443 16.6124 25.5482C16.7537 24.9181 17.1103 24.2245 17.4945 24.0043C17.5938 23.9469 17.6942 23.9223 17.7946 23.9346C17.7639 23.9244 17.7342 23.9131 17.7024 23.9028L17.7035 23.9018Z" fill="#FDFFFF"/>
<path d="M15.4193 25.5303C15.4193 25.5303 15.4133 25.5327 15.4097 25.5351C15.4097 25.5303 15.4133 25.5303 15.4133 25.5303H15.4193Z" fill="#838E93"/>
<path d="M15.1152 16.138C15.1623 16.1072 15.2084 16.0785 15.2555 16.0488C15.1859 16.3572 15.0947 16.6553 14.981 16.9381C15.0209 16.6676 15.065 16.4002 15.1152 16.138Z" fill="#9F2542"/>
<path d="M14.7075 8.77539C14.7301 8.8051 14.7505 8.83481 14.77 8.86452C14.7434 8.83993 14.7106 8.81944 14.7075 8.77539Z" fill="#E8F6FD"/>
<path d="M13.7326 8.63481C13.7346 8.67579 13.7377 8.71881 13.7428 8.76082C13.626 9.36322 11.1683 9.64291 10.5044 8.57231C10.4818 8.29057 10.4603 8.00576 10.4398 7.71993C10.4275 7.57445 10.4173 7.42794 10.406 7.28246C10.4029 7.25788 10.4029 7.22919 10.4009 7.2046C10.3886 7.06425 10.3784 6.92184 10.3691 6.78456C10.4398 6.79378 10.5249 6.77329 10.616 6.71387C10.7011 6.94233 10.8466 7.23944 11.1519 7.48429C11.3844 7.59391 11.6498 7.69329 11.9223 7.7773C12.6353 8.00269 13.376 8.13382 13.5707 8.11846C13.6014 8.11846 13.6414 8.11026 13.6854 8.10104L13.6936 8.1287C13.7049 8.29672 13.7182 8.46781 13.7336 8.63481H13.7326Z" fill="#F7CFAD"/>
<path d="M15.6907 12.7465C15.6886 12.6728 15.6814 12.598 15.6763 12.5262C15.6067 11.5827 15.4673 10.6729 15.1876 9.7642C15.119 9.52139 14.9899 9.21916 14.8157 8.9364C14.8004 8.91181 14.7871 8.8862 14.7686 8.86264C14.742 8.83805 14.7092 8.81756 14.7061 8.7735C14.4664 8.42517 14.157 8.13114 13.8281 8.0625C13.7759 8.07992 13.7288 8.09221 13.6837 8.10246L13.6919 8.13012C13.7031 8.29814 13.7165 8.46923 13.7318 8.63622C13.7462 8.6772 13.7492 8.72023 13.7421 8.76223C13.6253 9.36464 11.1675 9.64433 10.5036 8.57373C10.4811 8.54197 10.4616 8.50713 10.4463 8.47025L10.436 8.47537C10.2332 8.87698 10.3909 9.31341 10.6563 9.69146C10.8499 9.9691 11.103 10.217 11.3079 10.3953C11.4472 10.509 11.5865 10.6166 11.7187 10.7201C12.2914 11.1616 12.82 11.5468 13.2995 12.1431C13.9275 12.9135 14.4408 13.8673 14.7563 14.8099C14.7686 14.8478 14.7778 14.8846 14.7901 14.9246C14.912 15.3487 14.9315 15.8036 14.9315 16.2575C14.9295 16.6171 14.912 16.9736 14.9202 17.3107V17.3742C14.9202 17.368 14.9213 17.3588 14.9243 17.3486C14.9346 17.323 14.9438 17.2963 14.9541 17.2687C15.1026 16.8599 15.3085 16.3937 15.4489 15.9235C15.5267 15.6756 15.5831 15.4256 15.6046 15.1828C15.703 14.3857 15.7388 13.5538 15.6886 12.7496L15.6907 12.7465Z" fill="#FDFFFF"/>
<path d="M14.8756 7.28806C14.8869 7.453 14.7015 7.62615 14.4638 7.77265C14.263 7.89661 14.0232 8.00009 13.8296 8.06258C13.7774 8.07897 13.7302 8.09229 13.6851 8.10151C13.6411 8.11176 13.6011 8.11995 13.5704 8.11995C13.3768 8.1343 12.635 8.00316 11.922 7.77777C11.6495 7.69376 11.3841 7.59439 11.1516 7.48579C10.8473 7.23991 10.7008 6.9428 10.6157 6.71434C10.5246 6.77376 10.4406 6.79425 10.3688 6.78503C10.0072 6.73176 9.86581 5.94494 9.72443 5.59764C9.54412 5.15403 10.082 5.02596 10.2674 5.17861C10.3227 5.37327 10.3893 5.71955 10.461 6.05046C10.6342 6.1775 10.8196 6.29327 11.0081 6.40597C10.9538 6.15804 10.9344 5.95723 10.9344 5.78614C10.9344 5.36302 11.0573 5.12227 11.0962 4.83233C11.1516 4.46556 11.2304 4.19612 11.2141 3.85803C11.3349 3.86111 11.4589 3.85803 11.5849 3.84369C12.6504 3.74227 13.9167 3.11117 14.432 2.25879C14.6523 2.86939 14.7486 3.43696 14.7486 3.43696C14.6195 3.94307 14.7086 3.95024 14.8531 4.55469C14.8551 4.57518 14.8592 4.59465 14.8643 4.61104C14.932 4.95425 14.8705 5.2534 14.8551 5.65296C14.85 5.74721 14.849 5.83532 14.849 5.91728C14.849 5.96645 14.849 6.01461 14.85 6.06071C14.8623 6.52686 14.934 6.8547 14.8756 7.28806Z" fill="#F7CFAD"/>
<path d="M14.9328 16.2539C14.9328 15.801 14.9133 15.3451 14.7914 14.921C14.7791 14.881 14.7699 14.8442 14.7576 14.8063C14.4421 13.8637 13.9288 12.9099 13.3008 12.1395C12.8203 11.5442 12.2917 11.158 11.72 10.7164C11.5868 10.613 11.4485 10.5054 11.3092 10.3917C11.1043 10.2134 10.8512 9.96549 10.6576 9.68785C10.3922 9.30981 10.2345 8.87337 10.4373 8.47177L10.4476 8.46664C10.4629 8.50455 10.4824 8.53938 10.5049 8.57012C10.4824 8.28838 10.4609 8.00357 10.4404 7.71773C10.4281 7.57226 10.4178 7.42575 10.4066 7.28027C10.0931 7.59992 9.80724 8.03533 9.56136 8.46562C9.5214 8.4984 9.48145 8.53324 9.44252 8.56807C9.26016 9.15511 9.71708 10.2995 9.91276 10.7759C10.008 11.0207 10.1166 11.3732 10.2416 11.6324C10.2724 11.6938 10.3031 11.7512 10.3318 11.8004C10.5418 12.0555 10.9834 11.7071 11.1719 11.7071C11.4741 11.8424 11.1596 12.873 11.1596 12.873C11.7415 13.1978 12.5478 13.4549 13.1287 13.8043C14.0937 14.3647 14.4482 15.2191 14.7873 16.3451C14.7986 16.385 14.8119 16.427 14.8232 16.469C14.8765 16.6442 14.8959 17.0253 14.8959 17.3368C14.9052 17.3265 14.9133 17.3163 14.9236 17.304C14.9154 16.9679 14.9328 16.6104 14.9349 16.2508L14.9328 16.2539Z" fill="#3091B6"/>
<path d="M17.7144 7.25254C17.6437 7.03125 17.5638 6.81815 17.4767 6.6153C17.4675 6.58866 17.4552 6.55793 17.4429 6.53129C17.113 6.2014 15.7412 5.77828 14.8499 6.06002C14.8622 6.52617 14.9339 6.85401 14.8745 7.28737C14.8858 7.45232 14.7003 7.62546 14.4626 7.77196C14.768 7.857 15.1593 8.07009 15.4236 8.23606C15.5732 8.33031 15.6787 8.40613 15.7136 8.43994C15.8519 8.6141 15.7627 8.54239 15.7105 8.71553C15.6767 8.82207 15.5896 8.94399 15.6419 9.0823C15.6767 9.18782 16.3621 9.57816 16.4625 9.57816C16.525 9.57816 16.7688 10.2236 16.7022 10.7246C16.528 12.0349 16.4543 12.665 16.2606 13.6956C16.1684 14.1761 15.9687 14.9906 15.6961 15.759C15.4851 16.3481 14.894 17.4893 14.894 17.3398C14.894 17.0283 14.8745 16.6472 14.8212 16.472C14.81 16.43 14.7966 16.388 14.7854 16.3481C14.4463 15.2211 14.0908 14.3667 13.1267 13.8073C12.5458 13.4579 11.7406 13.2008 11.1576 12.876C11.1576 12.876 11.4732 11.8454 11.1699 11.7101C10.9814 11.7101 10.5398 12.0585 10.3298 11.8034C10.3011 11.7542 10.2704 11.6968 10.2397 11.6354C10.1147 11.3751 10.005 11.0237 9.9108 10.7789C9.71512 10.3025 9.25921 9.15811 9.44055 8.57107C8.2552 9.58738 6.03614 11.8443 6.03614 11.8443C5.92754 11.9704 5.76567 12.5133 5.70215 12.6988L6.04843 12.625C6.45516 12.6148 6.27075 12.1097 6.58322 12.1415C6.59756 12.1384 6.53916 11.8464 6.55658 11.8464C9.23872 16.7343 7.92839 12.6138 8.32897 13.0533C8.5144 13.2561 8.57997 13.4999 8.68857 13.712C9.38215 15.173 9.98149 17.2752 10.6003 18.9697C10.7591 19.4031 11.0193 23.1384 11.1699 23.5L14.6802 21.5974L17.4632 19.9038C17.6077 18.0063 17.5279 15.5848 17.7605 13.7315C17.7554 13.7253 17.7636 13.671 17.7708 13.6516C18.4941 11.7122 18.3568 9.20114 17.7124 7.25459L17.7144 7.25254Z" fill="#6CD3FA"/>
<path d="M10.0285 23.3233C9.25399 22.9596 9.18945 22.4227 9.11159 22.2803L8.69564 22.476C8.08402 21.6359 6.28294 17.0605 5.7041 15.0996C5.82807 16.0114 6.03809 16.9488 6.23172 17.7203H6.22557C6.38642 18.9814 7.65591 21.7776 7.65591 22.8943C7.65591 23.666 7.48603 24.8172 7.34549 25.6288C7.37419 25.478 7.30971 25.8354 7.34549 25.6288L11.8212 23.312C11.7423 23.2751 10.1064 23.3602 10.0285 23.3233Z" fill="#6CD3FA"/>
<path d="M9.7959 19.2671C9.81229 19.2568 9.82971 19.2476 9.8502 19.2363C9.84712 19.4177 9.83995 19.6011 9.83278 19.7896H9.82971C9.81946 19.6154 9.80717 19.4402 9.7959 19.2671Z" fill="#150E39"/>
<path d="M17.8497 23.9589C17.8344 23.9507 17.8159 23.9425 17.7954 23.9333C17.7657 23.9241 17.735 23.9118 17.7043 23.9005C17.6192 23.8729 17.528 23.8483 17.4338 23.8268C17.2576 23.7786 17.0721 23.7376 16.9226 23.6833C16.2484 24.1413 15.8602 25.2621 15.9472 26.0981C15.9565 26.1841 15.9718 26.2671 15.9913 26.347C16.2003 26.4382 16.4349 26.5273 16.6726 26.5724C16.6234 26.514 16.5906 26.4331 16.5712 26.3388C16.8826 26.4382 17.1961 26.4239 17.5106 26.3716C17.5157 26.3747 17.527 26.3798 17.5342 26.3808C17.2842 26.7548 17.0066 26.9382 16.5988 26.933C16.522 26.9095 16.4359 26.8839 16.3417 26.8542C16.2997 26.8408 16.2546 26.8255 16.2095 26.8101C16.0784 26.765 15.9339 26.7189 15.7802 26.6636C15.6645 26.6216 15.5415 26.5786 15.4155 26.5325H15.4114C15.2567 26.4751 15.0908 26.4146 14.9227 26.3521C14.5099 26.1974 14.0622 26.0253 13.6011 25.8409C12.4486 25.385 11.213 24.8687 10.2613 24.4302C10.1824 24.3943 10.1055 24.3595 10.0287 24.3226C9.25418 23.9589 8.6948 23.4743 8.6948 23.4743C8.0842 22.6342 6.28313 17.0598 5.70326 15.0969C5.69814 15.0365 5.68687 14.9781 5.6797 14.9207C5.56495 14.0048 5.54139 13.1329 5.71658 12.4977C5.92455 12.1177 6.22473 11.8902 6.50852 11.8492C6.52388 11.8462 6.54028 11.8441 6.55769 11.8441C7.32914 11.7785 7.97663 12.2406 8.41921 12.7867C8.59542 12.9967 8.73476 13.2221 8.84233 13.4341C9.53592 14.8951 10.2111 17.9994 10.8288 19.6939C10.9876 20.1273 11.1444 20.534 11.295 20.8957C11.8031 21.1794 12.9506 21.6886 14.1482 22.1988C14.349 22.2818 14.5488 22.3668 14.7486 22.4519C15.6399 22.8279 16.5035 23.1854 17.108 23.4364C17.1725 23.4651 17.232 23.4897 17.2893 23.5153C17.3016 23.5194 17.3129 23.5235 17.3231 23.5276C17.3262 23.5286 17.3272 23.5307 17.3303 23.5307C17.3887 23.5563 17.442 23.5788 17.4953 23.6014C17.6387 23.6628 17.7401 23.7294 17.8016 23.8442C17.8221 23.878 17.8374 23.9149 17.8497 23.9589Z" fill="#50BEE7"/>
<path d="M17.4951 24.0034C17.5105 24.0352 17.5197 24.068 17.532 24.0997C17.6437 24.0649 17.7523 24.027 17.8598 23.9881C17.8568 23.9788 17.8537 23.9686 17.8496 23.9594C17.8342 23.9512 17.8158 23.944 17.7953 23.9338C17.6949 23.9215 17.5945 23.9461 17.4951 24.0034Z" fill="#AFB6C9"/>
<path d="M17.3992 12.828L16.999 13.0767C16.7838 12.7307 16.5143 12.6558 16.5127 12.2635C16.492 9.20385 14.3165 7.86888 14.291 7.79395C14.4489 7.64248 14.3491 7.65306 14.3379 7.5C14.3443 7.45695 14.791 7.29395 14.791 7.29395C16.3105 8.62688 16.9193 10.2275 17.0532 12.0451C17.0771 12.3783 17.2111 12.5282 17.3992 12.828Z" fill="#262628"/>
<path d="M16.1509 12.9515C16.1509 13.5302 16.6212 14.0006 17.2 14.0006C17.7788 14.0006 18.2491 13.5302 18.2491 12.9515C18.2491 12.3727 17.7788 11.9023 17.2 11.9023C16.6212 11.9023 16.1509 12.3727 16.1509 12.9515Z" fill="#262628"/>
<path d="M17.1997 13.5225C17.515 13.5225 17.7705 13.2669 17.7705 12.9517C17.7705 12.6364 17.515 12.3809 17.1997 12.3809C16.8845 12.3809 16.6289 12.6364 16.6289 12.9517C16.6289 13.2669 16.8845 13.5225 17.1997 13.5225Z" fill="#FDFFFF"/>
<path d="M10.9679 13.732C10.9906 13.7546 11.0132 13.7772 11.0358 13.8013C11.1475 13.9158 11.2494 14.0205 11.3413 14.1124C11.7684 14.5452 11.9975 14.7658 12.1446 14.9073C12.2832 15.0402 12.3313 15.0855 12.3949 15.1675C12.4642 15.2552 12.5265 15.3499 12.5802 15.4503C12.972 16.1759 12.9847 17.2225 12.5944 18.0569C12.5816 18.0866 12.5689 18.1149 12.5533 18.1432C12.5067 18.2365 12.4515 18.327 12.3907 18.4147C12.187 18.7244 11.9113 18.996 11.586 19.2152L11.8108 19.5518C12.1786 19.3057 12.4883 18.9988 12.7231 18.6495C12.7938 18.5462 12.856 18.4402 12.9126 18.3298C12.9182 18.3199 12.9225 18.31 12.9267 18.3001C13.409 17.3342 13.4019 16.132 12.9409 15.2736C12.873 15.1463 12.7966 15.0275 12.7103 14.9186C12.6283 14.8153 12.5689 14.7559 12.4232 14.6159C12.2464 14.4462 11.9494 14.1605 11.3243 13.5184C11.1178 13.3063 10.7897 13.5467 10.9665 13.7334L10.9679 13.732Z" fill="#262628"/>
<path d="M10.9932 15.884C10.9974 15.9038 11.0017 15.9236 11.0059 15.9434L11.0101 15.9576C11.136 16.5162 11.3482 17.4511 12.1458 18.2049C12.2264 18.2813 12.3085 18.352 12.3919 18.417C12.5022 18.5047 12.614 18.5825 12.7257 18.6504C13.1259 18.9021 13.5149 19.0365 13.8104 19.1086L13.908 18.7154C13.6421 18.649 13.29 18.5259 12.9293 18.2996C12.8176 18.2303 12.7059 18.1511 12.5942 18.0578C12.5362 18.0125 12.481 17.9616 12.4244 17.9093C11.7159 17.2418 11.5292 16.4144 11.4061 15.8671L11.4033 15.8529C11.3977 15.8317 11.3934 15.8091 11.3892 15.7864C11.2817 15.2504 11.3043 14.573 11.3425 14.1133C11.3566 13.9238 11.3736 13.7739 11.3849 13.6848L10.9833 13.6367C10.979 13.6664 10.9762 13.6989 10.9705 13.7343C10.9196 14.1982 10.8433 15.1458 10.996 15.884H10.9932Z" fill="#262628"/>
<path d="M11.4658 19.876L12.0596 19.5105C12.1707 19.4421 12.2053 19.2967 12.1369 19.1856L12.0072 18.9748C11.9389 18.8637 11.7934 18.8291 11.6823 18.8974L11.0885 19.2629C10.9774 19.3313 10.9428 19.4767 11.0111 19.5878L11.1409 19.7986C11.2092 19.9097 11.3547 19.9443 11.4658 19.876Z" fill="#262628"/>
<path d="M14.4132 18.8137L13.7508 18.5962C13.6268 18.5555 13.4934 18.6229 13.4527 18.7469L13.3755 18.982C13.3348 19.1059 13.4022 19.2394 13.5262 19.2801L14.1886 19.4976C14.3125 19.5383 14.446 19.4709 14.4867 19.3469L14.5639 19.1118C14.6046 18.9879 14.5371 18.8544 14.4132 18.8137Z" fill="#262628"/>
<path d="M10.0426 10.7933C10.0779 11.1299 10.2986 12.4904 10.9675 13.7322C10.9166 14.196 10.8402 15.1436 10.993 15.8819L11.3876 15.7857C11.2801 15.2497 11.3027 14.5723 11.3409 14.1126C11.768 14.5454 11.9971 14.766 12.1442 14.9074C12.2828 15.0404 12.3309 15.0856 12.3945 15.1677C12.4638 15.2554 12.5261 15.3501 12.5798 15.4505C12.6831 15.3996 12.8174 15.3317 12.9433 15.2709C12.8754 15.1436 12.799 15.0248 12.7128 14.9159C12.6307 14.8127 12.5713 14.7533 12.4257 14.6133C12.2489 14.4435 11.9519 14.1579 11.3268 13.5158C11.1363 13.3201 10.0733 10.0039 10.5146 8.58486L10.4376 7.73633C9.72052 8.55343 9.97023 10.0673 10.0454 10.7904L10.0426 10.7933Z" fill="#262628"/>
<path d="M25.9152 7.13888L29.5821 3.85192" stroke="#262628" stroke-linecap="round"/>
<path d="M22.3258 5.94448L21.8132 1.04681" stroke="#262628" stroke-linecap="round"/>
<path d="M17.5116 26.3707C17.5167 26.3737 17.528 26.3789 17.5351 26.3799C17.2852 26.7538 17.0075 26.9372 16.5998 26.9321C16.5229 26.9085 16.4369 26.8829 16.3426 26.8532C16.1592 26.6565 16.0097 26.4639 15.9912 26.3461C16.2002 26.4373 16.4348 26.5264 16.6725 26.5715C16.6233 26.5131 16.5905 26.4321 16.5711 26.3379C16.8825 26.4373 17.196 26.4229 17.5105 26.3707H17.5116Z" fill="#136787"/>
<path d="M17.85 23.9606C17.8347 23.9524 17.8162 23.9442 17.7957 23.935C17.766 23.9258 17.7353 23.9135 17.7045 23.9022C17.6195 23.8746 17.5283 23.85 17.4341 23.8285C17.2579 23.7803 17.0724 23.7393 16.9229 23.685C16.9229 23.685 17.0581 23.6123 17.3245 23.5293C17.3275 23.5303 17.3286 23.5324 17.3316 23.5324C17.39 23.558 17.4433 23.5805 17.4966 23.6031C17.64 23.6645 17.7414 23.7311 17.8029 23.8459C17.8234 23.8797 17.8388 23.9166 17.851 23.9606H17.85Z" fill="#136787"/>
<path d="M16.6727 26.5715C16.6727 26.5715 16.8571 26.4782 16.8653 26.4004C16.8653 26.4004 16.6194 26.3758 16.5713 26.3379C16.5713 26.3379 16.599 26.5182 16.6727 26.5715Z" fill="#AFB6C9"/>
<path d="M14.8755 7.28868C14.8868 7.45362 14.7013 7.62676 14.4637 7.77327C14.2629 7.89723 14.0231 8.0007 13.8295 8.0632C13.7772 8.07959 13.7301 8.09291 13.685 8.10213C13.641 8.11237 13.601 8.12057 13.5703 8.12057C13.3767 8.13491 12.6349 8.00378 11.9219 7.77839C11.6494 7.69438 11.384 7.595 11.1515 7.4864C10.8472 7.24052 10.7007 6.94342 10.6156 6.71496L10.4609 6.05108L10.7027 5.43945L11.008 6.40658L12.2927 6.71496L13.1298 6.1566L14.1153 5.78983L14.8499 5.77754C14.8499 5.82671 14.8489 6.01522 14.8499 6.06132C14.8622 6.52747 14.9339 6.85531 14.8755 7.28868Z" fill="#262628"/>
<path d="M11.9812 5.76427C11.9648 6.11362 11.849 6.2591 11.6718 6.56645L11.0069 6.40663C10.9526 6.1587 10.9331 5.9579 10.9331 5.78681C10.9331 5.36369 11.056 5.12293 11.095 4.833C11.1503 4.46623 11.2292 4.19678 11.2128 3.8587C11.2128 3.8587 11.4587 3.84128 11.8357 3.81055C11.8552 4.09946 11.7578 4.49696 11.7834 4.71416C11.8429 5.21821 12.0027 5.31964 11.9812 5.76427Z" fill="#EAB890"/>
<path d="M33.439 33.7359C33.5325 29.7823 35.2817 28.4721 37.1739 29.671C37.245 29.715 37.3223 29.7599 37.4027 29.8024C36.0832 30.8057 34.7545 32.0548 33.439 33.7359Z" fill="url(#paint0_linear_1476_1778)"/>
<path d="M31.2364 34.2682C30.6859 34.1594 28.5392 33.2095 26.1148 32.334L20.4966 35.5103L21.2699 35.9386C21.2699 35.9332 20.4966 35.5103 20.4966 35.5103C24.1325 38.3308 27.8119 40 33.0001 40C36.0001 40 37.9526 38.7761 39.0834 36.3583C39.4544 35.5645 39.5325 33.3422 39.5325 32.3915C35.602 30.4444 32.5303 32.199 31.2364 34.2682Z" fill="#191547"/>
<path d="M31.5 30C29.5 31.2 26.6667 32.1667 25.5 32L27.5 29L29.5 27L31.5 30Z" fill="#5B53BB"/>
<path d="M36.5659 17.5703C39.2643 17.9359 40.3248 22.6664 38.9335 25.5735C37.9843 27.5569 36.5659 17.5703 36.5659 17.5703Z" fill="#9088EA"/>
<path d="M36.263 36.9895C32.9957 38.8237 28.9483 36.5856 28.3369 34.0101C29.8375 28.508 27.8371 27.0075 30.6197 20.1198C32.0604 19.0067 33.2887 18.0181 34.3445 17.7824C35.4475 17.5358 36.9061 17.3441 37.5492 17.9609C40.3414 22.5058 39.0309 25.3418 39.5326 32.3904C39.1878 34.6474 37.8715 36.0882 36.263 36.9895Z" fill="#ADA6FF"/>
<path d="M35.8672 17.7034C35.3106 17.1786 35.3222 16.2502 35.3516 15.2856C35.4761 14.7677 35.5147 14.2042 35.4436 13.6176C35.1885 11.5105 33.6449 9.96536 31.9947 10.1648C30.346 10.3658 29.2159 12.2348 29.471 14.3403C29.7083 16.2928 31.2519 18.137 32.7522 18.2955C32.8279 18.457 32.4986 18.6456 32.283 18.8605C33.5135 19.1867 34.656 18.5413 35.2604 18.2112C35.5742 18.0412 35.7961 17.8773 35.8679 17.7026L35.8672 17.7034Z" fill="#F7CFAD"/>
<path d="M25.8998 26.8522C28.0643 23.3413 28.6483 21.2514 29.7601 20.3515C32.2294 18.8328 34.306 22.5637 31.4777 26.2562C28.8061 29.9999 28.0504 31.2501 26.3595 31.8767C23.8725 32.7974 24.9656 28.653 25.8988 26.8522H25.8998Z" fill="#9088EA"/>
<path d="M29.6454 12.164C29.6717 11.0393 29.4313 10.7626 29.4815 10.0329C29.5341 9.25379 30.2135 9.80723 30.474 9.47872C30.5907 9.32181 30.719 9.18887 30.8551 9.0907C31.1349 8.89051 31.6976 9.0451 32.3075 9.32645L32.3051 9.32413C32.4334 9.38674 34.6008 9.70829 35.4557 10.5585C36.309 11.4065 36.4969 13.2268 35.6466 15.3763C35.5052 15.7327 35.3931 16.0148 35.458 16.5435C34.2035 16.5597 33.8456 17.284 33.007 16.6262C32.4041 16.1555 31.5144 15.6106 31.3559 15.3717C31.1998 15.1313 31.3389 15.0757 31.3158 14.8848C31.0978 13.0938 30.355 14.1296 30.4021 14.5323C30.4717 15.4761 31.1836 17.5793 32.0647 17.6566C32.5285 17.8266 32.5749 18.2131 32.2348 18.3368C31.8955 18.4604 30.4075 17.6117 29.6446 15.8378C29.8402 15.5078 30.1022 15.5541 30.1022 15.3269C30.1022 15.0996 29.9128 14.4743 29.858 13.7663C29.8603 13.7663 29.8626 13.7678 29.8649 13.7678C29.7096 13.3852 29.6369 12.9052 29.6408 12.392C29.6392 12.3928 29.6392 12.3943 29.6392 12.3951C29.6392 12.3819 29.6392 12.3703 29.6392 12.3572C29.6408 12.2938 29.6439 12.2281 29.6469 12.1632L29.6454 12.164Z" fill="#262628"/>
<defs>
<linearGradient id="paint0_linear_1476_1778" x1="32.9783" y1="33.1956" x2="36.6483" y2="29.0743" gradientUnits="userSpaceOnUse">
<stop stop-color="#131147"/>
<stop offset="0.2" stop-color="#15134C"/>
<stop offset="0.46" stop-color="#1C185B"/>
<stop offset="0.73" stop-color="#272274"/>
<stop offset="1" stop-color="#362E94"/>
</linearGradient>
</defs>
</svg>
